<?xml version="1.0" encoding="utf-8"?>
<!-- Generator: Adobe Illustrator 25.2.3, SVG Export Plug-In . SVG Version: 6.00 Build 0)  -->
<svg version="1.1" id="QuestionCircle" xmlns="http://www.w3.org/2000/svg" xmlns:xlink="http://www.w3.org/1999/xlink" x="0px"
	 y="0px" viewBox="0 0 32 32" style="enable-background:new 0 0 32 32;" xml:space="preserve">
<g>
	<path d="M15.9,31.7C7.3,31.7,0.3,24.6,0.3,16C0.3,7.3,7.3,0.2,16,0.3c8.7,0,15.7,7.1,15.7,15.7C31.7,24.7,24.6,31.7,15.9,31.7z
		 M29,16c0-7.2-5.8-13-13-13C8.8,2.9,2.9,8.8,2.9,16c0,7.2,5.9,13,13,13C23.2,29,29,23.2,29,16z"/>
	<path d="M17.3,19.9c-0.9,0-1.7,0-2.7,0c0.1-0.4,0.1-0.8,0.2-1.2c0.4-1.6,1.2-3,2.6-3.9c0.8-0.5,1.1-1.4,0.9-2.3
		c-0.2-1-0.8-1.7-1.8-2c-1.4-0.4-2.9,0.6-3,2c0,0.1,0,0.2,0,0.3c-0.4,0-0.9,0-1.3,0c-0.4,0-0.9,0-1.3,0c-0.1-0.5,0-1.1,0.2-1.6
		c0.6-2.1,2.7-3.5,4.9-3.5c2.9,0,5.3,2.6,5,5.6c-0.2,1.6-0.9,2.8-2.2,3.7c-0.9,0.6-1.3,1.4-1.4,2.4C17.3,19.6,17.3,19.7,17.3,19.9
		C17.3,19.8,17.3,19.9,17.3,19.9z"/>
	<path d="M17.3,24c-0.9,0-1.7,0-2.7,0c0-0.2,0-0.4,0-0.6c0-0.6,0-1.1,0-1.7c0-0.1,0-0.2,0.2-0.2c0.8,0,1.6,0,2.5,0
		C17.3,22.4,17.3,23.2,17.3,24z"/>
</g>
</svg>
