<?xml version="1.0" encoding="utf-8"?>
<!-- Generator: Adobe Illustrator 25.2.1, SVG Export Plug-In . SVG Version: 6.00 Build 0)  -->
<svg version="1.1" xmlns="http://www.w3.org/2000/svg" xmlns:xlink="http://www.w3.org/1999/xlink" x="0px" y="0px"
	 viewBox="0 0 29 32" style="enable-background:new 0 0 29 32;" xml:space="preserve">
<style type="text/css">
	.st0{display:none;}
	.st1{display:inline;}
	.st2{fill:none;stroke:#000000;stroke-width:0.7874;stroke-linecap:round;stroke-miterlimit:10;}
</style>
<g id="Layer_1">
	<path id="Lamp" d="M13.6,15.5c0.4,0.5,1.1,0.6,1.5,0.1L25.6,5.1C26,4.7,26,4,25.5,3.6c-1.8-1.5-5.1-3.2-8.6-1.4l-1.4-1.4
		c-1-1-2.7-1-3.7,0l-0.9,0.9c-1,1-1,2.7,0,3.7l1.2,1.2l-8.6,8.6c-0.2-0.1-0.5-0.1-0.8-0.1c-1.5,0-2.8,1.2-2.8,2.7s1.2,2.8,2.8,2.8
		c0.2,0,0.5,0,0.7-0.1l5.7,6.8c-5.6,0.5-5.9,2.9-6.3,4.1C2.6,31.7,3,32,3.4,32h15.7c0.5,0,0.8-0.3,0.6-0.7c-0.5-1.3-0.8-4.1-8.2-4.2
		L5,19.4c0.3-0.5,0.5-1,0.5-1.6S5.3,16.6,5,16.2l6.7-6.7C11.5,11.9,12.6,14.1,13.6,15.5z M2.8,19.2c-0.8,0-1.4-0.7-1.4-1.4
		c0-0.8,0.6-1.4,1.4-1.4s1.4,0.6,1.4,1.4S3.5,19.2,2.8,19.2z M22.4,8.9L19,12.3c-0.1,0.1-0.1,0.4,0,0.5c0.7,0.6,2.2,1.4,3.7-0.1
		c1.4-1.5,0.8-3,0.2-3.8C22.8,8.7,22.5,8.7,22.4,8.9z M26,16.4c-0.1,0-0.2,0-0.3-0.1l-2.1-2.1c-0.2-0.2-0.2-0.4,0-0.6
		c0.2-0.2,0.4-0.2,0.6,0l2.1,2.1c0.2,0.2,0.2,0.4,0,0.6C26.2,16.4,26.1,16.4,26,16.4z M28.6,11.2h-2.9c-0.2,0-0.4-0.2-0.4-0.4
		s0.2-0.4,0.4-0.4h2.9c0.2,0,0.4,0.2,0.4,0.4S28.8,11.2,28.6,11.2z M20.7,19c-0.2,0-0.4-0.2-0.4-0.4v-2.9c0-0.2,0.2-0.4,0.4-0.4
		s0.4,0.2,0.4,0.4v2.9C21.1,18.9,20.9,19,20.7,19z"/>
	<g id="Layer_3" class="st0">
		<path class="st1" d="M4.1,74.4h15.7c0.5,0,0.8-0.3,0.6-0.7c-0.5-1.3-0.8-4.2-8.5-4.2S4,72.4,3.4,73.8C3.3,74.1,3.6,74.4,4.1,74.4z
			"/>
		<polyline class="st1" points="12.4,69.8 5.1,61.2 3.8,62.4 10.3,70.3 		"/>
		<path class="st1" d="M3.4,57.5c-1.5,0-2.8,1.2-2.8,2.7S1.8,63,3.4,63c1.5,0,2.7-1.2,2.7-2.8C6.2,58.7,4.9,57.5,3.4,57.5z
			 M3.4,61.7C2.6,61.7,2,61,2,60.2s0.6-1.4,1.4-1.4s1.4,0.6,1.4,1.4C4.8,61,4.2,61.7,3.4,61.7z"/>
		<polyline class="st1" points="5.6,58.6 14.5,49.7 13.2,48.5 3.8,58 		"/>
		<g class="st1">
			<path d="M15.8,58.1l10.5-10.6c0.4-0.4,0.4-1.1-0.1-1.5c-2.3-1.8-6.6-4.1-11.1,0.4c-4.4,4.5-2.5,9.1-0.8,11.5
				C14.6,58.5,15.3,58.5,15.8,58.1z"/>
			<path d="M14.9,51.1l-3.4-3.3c-1-1-1-2.7,0-3.7l0.9-0.9c1-1,2.7-1,3.7,0l3.4,3.3c1,1,1,2.7,0,3.7l-0.9,0.9
				C17.6,52.1,15.9,52.1,14.9,51.1z"/>
			<path d="M23,51.3l-3.4,3.5c-0.1,0.1-0.1,0.4,0,0.5c0.7,0.6,2.2,1.4,3.7-0.1c1.4-1.5,0.8-3,0.2-3.8C23.4,51.1,23.2,51.1,23,51.3z"
				/>
			<line class="st2" x1="24.6" y1="56.4" x2="26.7" y2="58.5"/>
			<line class="st2" x1="26.3" y1="53.2" x2="29.3" y2="53.2"/>
			<line class="st2" x1="21.4" y1="58.1" x2="21.4" y2="61.1"/>
		</g>
	</g>
</g>
<g id="Layer_2">
</g>
</svg>
