<?xml version="1.0" encoding="utf-8"?>
<!-- Generator: Adobe Illustrator 25.2.1, SVG Export Plug-In . SVG Version: 6.00 Build 0)  -->
<svg version="1.1" id="Layer_1" xmlns="http://www.w3.org/2000/svg" xmlns:xlink="http://www.w3.org/1999/xlink" x="0px" y="0px"
	 viewBox="0 0 29.2 31.2" style="enable-background:new 0 0 29.2 31.2;" xml:space="preserve">
<style type="text/css">
	.st0{display:none;}
	.st1{display:inline;}
	.st2{fill:none;stroke:#000000;stroke-width:0.7874;stroke-linecap:round;stroke-miterlimit:10;}
</style>
<path id="Lamp" class="st0" d="M-17.8,14.9c0.4,0.5,1.1,0.6,1.5,0.1L-5.8,4.5C-5.4,4.1-5.4,3.4-5.9,3c-1.8-1.5-5.1-3.2-8.6-1.4
	l-1.4-1.4c-1-1-2.7-1-3.7,0l-0.9,0.9c-1,1-1,2.7,0,3.7l1.2,1.2l-8.6,8.6c-0.2-0.1-0.5-0.1-0.8-0.1c-1.5,0-2.8,1.2-2.8,2.7
	s1.2,2.8,2.8,2.8c0.2,0,0.5,0,0.7-0.1l5.7,6.8c-5.6,0.5-5.9,2.9-6.3,4.1c-0.2,0.3,0.2,0.6,0.6,0.6h15.7c0.5,0,0.8-0.3,0.6-0.7
	c-0.5-1.3-0.8-4.1-8.2-4.2l-6.5-7.7c0.3-0.5,0.5-1,0.5-1.6s-0.2-1.2-0.5-1.6l6.7-6.7C-19.9,11.3-18.8,13.5-17.8,14.9z M-28.6,18.6
	c-0.8,0-1.4-0.7-1.4-1.4c0-0.8,0.6-1.4,1.4-1.4c0.8,0,1.4,0.6,1.4,1.4S-27.9,18.6-28.6,18.6z M-9,8.3l-3.4,3.4
	c-0.1,0.1-0.1,0.4,0,0.5c0.7,0.6,2.2,1.4,3.7-0.1c1.4-1.5,0.8-3,0.2-3.8C-8.6,8.1-8.9,8.1-9,8.3z M-5.4,15.8c-0.1,0-0.2,0-0.3-0.1
	l-2.1-2.1C-8,13.4-8,13.2-7.8,13c0.2-0.2,0.4-0.2,0.6,0l2.1,2.1c0.2,0.2,0.2,0.4,0,0.6C-5.2,15.8-5.3,15.8-5.4,15.8z M-2.8,10.6
	h-2.9c-0.2,0-0.4-0.2-0.4-0.4s0.2-0.4,0.4-0.4h2.9c0.2,0,0.4,0.2,0.4,0.4S-2.6,10.6-2.8,10.6z M-10.7,18.4c-0.2,0-0.4-0.2-0.4-0.4
	v-2.9c0-0.2,0.2-0.4,0.4-0.4s0.4,0.2,0.4,0.4V18C-10.3,18.3-10.5,18.4-10.7,18.4z"/>
<g id="Layer_3" class="st0">
	<path class="st1" d="M4.1,73.8h15.7c0.5,0,0.8-0.3,0.6-0.7c-0.5-1.3-0.8-4.2-8.5-4.2S4,71.8,3.4,73.2C3.3,73.5,3.6,73.8,4.1,73.8z"
		/>
	<polyline class="st1" points="12.4,69.2 5.1,60.6 3.8,61.8 10.3,69.7 	"/>
	<path class="st1" d="M3.4,56.9c-1.5,0-2.8,1.2-2.8,2.7s1.2,2.8,2.8,2.8c1.5,0,2.7-1.2,2.7-2.8C6.2,58.1,4.9,56.9,3.4,56.9z
		 M3.4,61.1c-0.8,0-1.4-0.7-1.4-1.5s0.6-1.4,1.4-1.4s1.4,0.6,1.4,1.4C4.8,60.4,4.2,61.1,3.4,61.1z"/>
	<polyline class="st1" points="5.6,58 14.5,49.1 13.2,47.9 3.8,57.4 	"/>
	<g class="st1">
		<path d="M15.8,57.5l10.5-10.6c0.4-0.4,0.4-1.1-0.1-1.5c-2.3-1.8-6.6-4.1-11.1,0.4c-4.4,4.5-2.5,9.1-0.8,11.5
			C14.6,57.9,15.3,57.9,15.8,57.5z"/>
		<path d="M14.9,50.5l-3.4-3.3c-1-1-1-2.7,0-3.7l0.9-0.9c1-1,2.7-1,3.7,0l3.4,3.3c1,1,1,2.7,0,3.7l-0.9,0.9
			C17.6,51.5,15.9,51.5,14.9,50.5z"/>
		<path d="M23,50.7l-3.4,3.5c-0.1,0.1-0.1,0.4,0,0.5c0.7,0.6,2.2,1.4,3.7-0.1c1.4-1.5,0.8-3,0.2-3.8C23.4,50.5,23.2,50.5,23,50.7z"
			/>
		<line class="st2" x1="24.6" y1="55.8" x2="26.7" y2="57.9"/>
		<line class="st2" x1="26.3" y1="52.6" x2="29.3" y2="52.6"/>
		<line class="st2" x1="21.4" y1="57.5" x2="21.4" y2="60.5"/>
	</g>
</g>
<g>
	<path d="M2.7,31.2h16.8c0.5,0,0.9-0.3,0.6-0.7c-0.5-1.3-0.9-4.2-9.1-4.2S2.6,29.2,2,30.6C1.9,30.9,2.2,31.2,2.7,31.2z"/>
	<polyline points="13.7,28.3 5.2,18.3 2.7,19.9 10.6,29.1 	"/>
	<path d="M2.7,14.8c-1.5,0-2.7,1.2-2.7,2.6s1.2,2.7,2.7,2.7c1.5,0,2.6-1.2,2.6-2.7C5.5,15.9,4.2,14.8,2.7,14.8z"/>
	<polyline points="4.6,16.3 14.5,8 13.1,6.4 2.4,15 	"/>
	<g>
		<path d="M17.4,19L29,6.7c0.4-0.5,0.3-1.4-0.4-1.9C25.1,2.1,19-1.3,14.1,3.9c-4.8,5.2-1.4,11.4,1.4,14.7C16,19.4,16.9,19.4,17.4,19
			z"/>
		<path d="M15.2,10.3l-4.4-4c-1.3-1.2-1.5-3.2-0.4-4.4l1-1c1.1-1.2,3.1-1.1,4.4,0.1l4.4,4c1.3,1.2,1.5,3.2,0.4,4.4l-1,1
			C18.6,11.5,16.5,11.5,15.2,10.3z"/>
	</g>
</g>
</svg>
