<?xml version="1.0" encoding="utf-8"?>
<!-- Generator: Adobe Illustrator 24.1.0, SVG Export Plug-In . SVG Version: 6.00 Build 0)  -->
<svg version="1.1" id="AddEmoji" xmlns="http://www.w3.org/2000/svg" xmlns:xlink="http://www.w3.org/1999/xlink" x="0px" y="0px"
	 viewBox="0 0 35.6 32.7" style="enable-background:new 0 0 35.6 32.7;" xml:space="preserve">
<g>
	<path d="M16,0C7.2,0,0,7.2,0,15.9C0,24.8,7.1,32,16,32c2.9,0,5.7-0.8,8.1-2.2v-1.6c-2.3,1.6-5.1,2.5-8.1,2.5
		C7.9,30.6,1.4,24,1.4,16C1.4,7.9,8,1.4,16,1.4C24.1,1.4,30.6,8,30.6,16c0,0.6,0,1.2-0.1,1.8v0c0.1,0.3,0.2,0.5,0.2,0.8
		c0,0.1,0,0.3,0,0.4v2.1h0.4c0.6-1.6,0.9-3.4,0.9-5.2C32,7.2,24.8,0,16,0z"/>
	<path d="M24.2,18.2c-0.1,0.3-0.1,0.6-0.1,0.9v2.1H22c-1.7,0-3.2,1.4-3.2,3.2v0.3c0,0.6,0.1,1.1,0.5,1.6c-2.5,1-5.3,0.9-7.7-0.5
		c-2.8-1.7-4.2-4.2-4.4-7.5H24.2z"/>
	<path d="M7.3,11.5c0-1.4,1.2-2.6,2.6-2.6c1.4,0,2.6,1.2,2.6,2.6c0,1.4-1.2,2.6-2.6,2.6C8.4,14.1,7.3,13,7.3,11.5z"/>
	<path d="M24.7,11.5c0,1.4-1.2,2.6-2.6,2.6c-1.4,0-2.6-1.2-2.6-2.6c0-1.4,1.2-2.6,2.6-2.6C23.6,8.9,24.7,10.1,24.7,11.5z"/>
</g>
<path d="M32.8,21.6h-2.5v-2.5c0-0.1,0-0.3,0-0.4c-0.2-1.3-1.4-2.4-2.8-2.4h-0.3c-1.2,0-2.3,0.8-2.6,1.9c-0.1,0.3-0.1,0.6-0.1,0.9
	v2.5H22c-1.5,0-2.8,1.2-2.8,2.8v0.3c0,0.5,0.1,1,0.4,1.4c0.5,0.8,1.4,1.3,2.4,1.3h2.5V30c0,1.5,1.2,2.8,2.8,2.8h0.3
	c1.5,0,2.8-1.2,2.8-2.8v-2.5h2.5c1.5,0,2.8-1.2,2.8-2.8v-0.3C35.6,22.8,34.4,21.6,32.8,21.6z M34.1,24.7c0,0.7-0.6,1.3-1.3,1.3h-4v4
	c0,0.7-0.6,1.3-1.3,1.3h-0.3c-0.7,0-1.3-0.6-1.3-1.3v-4h-4c-0.5,0-0.8-0.2-1.1-0.6c-0.1-0.2-0.2-0.5-0.2-0.7v-0.3
	c0-0.7,0.6-1.3,1.3-1.3h4v-4c0-0.7,0.6-1.3,1.3-1.3h0.3c0.7,0,1.3,0.6,1.3,1.3v4h4c0.7,0,1.3,0.6,1.3,1.3V24.7z"/>
</svg>
