<?xml version="1.0" encoding="utf-8"?>
<!-- Generator: Adobe Illustrator 25.2.3, SVG Export Plug-In . SVG Version: 6.00 Build 0)  -->
<svg version="1.1" id="PaperClip" xmlns="http://www.w3.org/2000/svg" xmlns:xlink="http://www.w3.org/1999/xlink" x="0px" y="0px"
	 viewBox="0 0 32 32" style="enable-background:new 0 0 32 32;" xml:space="preserve">
<g id="LZUPA4.tif">
	<g>
		<path d="M13.5,28.3c-0.3-0.3-0.6-0.6-1-1c0.1-0.1,0.2-0.2,0.3-0.3c4.1-4.1,8.3-8.3,12.4-12.4c2.2-2.2,2.2-5.7,0-7.8
			c-2.1-2.1-5.6-2.1-7.7,0C13.7,10.5,9.9,14.3,6.2,18c-1.3,1.3-1.3,3.5,0,4.8c1.3,1.3,3.4,1.4,4.8,0.2c0.1-0.1,0.1-0.1,0.2-0.2
			c3.7-3.7,7.4-7.4,11-11c0.4-0.4,0.6-0.8,0.5-1.3c-0.2-1-1.4-1.5-2.2-0.9c-0.1,0.1-0.2,0.2-0.3,0.3c-3.1,3.1-6.2,6.2-9.3,9.3
			c-0.1,0.1-0.2,0.2-0.2,0.3c-0.3-0.4-0.7-0.7-1-1c0,0,0.1-0.1,0.1-0.2c3.2-3.2,6.3-6.4,9.5-9.5c1.5-1.5,4-0.9,4.6,1.1
			c0.3,1.1,0.1,2-0.7,2.8c-2.1,2.1-4.2,4.2-6.3,6.3c-1.6,1.6-3.2,3.2-4.9,4.9c-1.3,1.3-2.9,1.8-4.7,1.3c-1.8-0.5-3-1.7-3.4-3.5
			c-0.4-1.8,0-3.3,1.3-4.6c3.5-3.5,6.9-6.9,10.4-10.4c0.4-0.4,0.7-0.8,1.2-1.1c2-1.7,4.3-2.2,6.7-1.3c2.5,0.8,4,2.6,4.6,5.2
			c0.5,2.4-0.1,4.5-1.8,6.2c-4.2,4.2-8.4,8.4-12.5,12.6C13.6,28.1,13.6,28.2,13.5,28.3z"/>
	</g>
</g>
</svg>
