<?xml version="1.0" encoding="utf-8"?>
<!-- Generator: Adobe Illustrator 25.2.3, SVG Export Plug-In . SVG Version: 6.00 Build 0)  -->
<svg version="1.1" id="ChatHeart" xmlns="http://www.w3.org/2000/svg" xmlns:xlink="http://www.w3.org/1999/xlink" x="0px" y="0px"
	 viewBox="0 0 32 32" style="enable-background:new 0 0 32 32;" xml:space="preserve">
<g id="NhEHim_1_">
	<g>
		<path d="M8.2,3.5c5.2,0,10.5,0,15.7,0c0.1,0,0.1,0.1,0.2,0.1c2,0.2,4,2.1,4,4.8c0,3.9,0,7.8,0,11.7c0,2-1.3,3.9-3.2,4.4
			c-0.8,0.2-1.8,0.3-2.7,0.2c-0.8,0-1.4,0.2-2,0.7c-2.6,2.1-5.3,4.1-8,6.2c-0.2,0-0.3,0-0.5,0c-0.6-0.2-0.9-0.6-0.9-1.3
			c0.1-0.6,0.1-1.3,0.2-1.9c0.1-1.2,0.2-2.4,0.3-3.7c-0.8,0-1.5,0-2.2,0c-2.9,0-4.9-2-4.9-4.9C4,16,4,12.1,4,8.2
			c0-1.4,0.5-2.7,1.6-3.6C6.4,4.1,7.3,3.9,8.2,3.5z M13,28.3c2.2-1.7,4.3-3.3,6.3-4.9c0.6-0.5,1.2-0.8,2-0.7c0.6,0.1,1.2,0,1.8,0
			c1.6,0,2.7-1.1,2.7-2.7c0-3.8,0-7.7,0-11.5c0-1.7-1.1-2.8-2.8-2.8c-4.7,0-9.4,0-14.1,0c-1.7,0-2.8,1.1-2.8,2.8c0,3.8,0,7.7,0,11.5
			c0,1.7,1.1,2.8,2.8,2.8c1.8,0,3.5,0,5.3,0c0.7,0,1.1,0.4,1.1,1c0,0.6-0.4,1-1.1,1.1c-0.3,0-0.6,0-0.9,0C13.2,26,13.1,27,13,28.3z"
			/>
		<path d="M16,9c1.1-0.7,2.2-1,3.5-0.6c3,0.8,4.1,4.4,2,6.7c-1.5,1.6-3.1,3.2-4.7,4.8c-0.5,0.5-1.1,0.5-1.6,0
			c-1.6-1.6-3.2-3.2-4.8-4.8c-1.3-1.3-1.3-3.6-0.2-5.1c1.2-1.6,3.2-2.1,5-1.4C15.5,8.7,15.7,8.8,16,9z M16,17.5
			c1.3-1.3,2.7-2.6,3.9-4c0.7-0.8,0.7-1.8-0.1-2.6c-0.8-0.8-1.9-0.9-2.7-0.1c-1,0.9-1.3,0.9-2.3,0c-0.1-0.1-0.1-0.1-0.2-0.2
			c-0.8-0.6-1.8-0.5-2.5,0.3c-0.7,0.7-0.8,1.8-0.1,2.5C13.3,14.8,14.6,16.2,16,17.5z"/>
	</g>
</g>
</svg>
