<?xml version="1.0" encoding="utf-8"?>
<!-- Generator: Adobe Illustrator 24.1.0, SVG Export Plug-In . SVG Version: 6.00 Build 0)  -->
<svg version="1.1" id="Posts" xmlns="http://www.w3.org/2000/svg" xmlns:xlink="http://www.w3.org/1999/xlink" x="0px" y="0px"
	 viewBox="0 0 32 24.8" style="enable-background:new 0 0 32 24.8;" xml:space="preserve">
<path id="Icon_awesome-comments" d="M23.1,8.9C23.1,4,17.9,0,11.6,0S0.1,4,0.1,8.9c0,1.9,0.8,3.7,2.1,5.1c-0.5,1.1-1.2,2.1-2,3
	c-0.1,0.1-0.2,0.3-0.1,0.5c0.1,0.2,0.2,0.3,0.4,0.3c1.7,0,3.4-0.5,4.9-1.4c1.9,0.9,4,1.4,6.2,1.4C17.9,17.7,23.1,13.8,23.1,8.9z
	 M29.8,21c1.3-1.4,2.1-3.2,2.1-5.1c0-3.7-3-6.9-7.2-8.2c0,0.4,0.1,0.7,0.1,1.1c0,5.9-6,10.6-13.3,10.6c-0.6,0-1.2,0-1.8-0.1
	c1.7,3.2,5.8,5.4,10.6,5.4c2.1,0,4.2-0.5,6.2-1.4c1.5,0.9,3.2,1.4,4.9,1.4c0.2,0,0.3-0.1,0.4-0.3c0.1-0.2,0-0.4-0.1-0.5
	C31,23.2,30.4,22.1,29.8,21L29.8,21z"/>
</svg>
