<?xml version="1.0" encoding="utf-8"?>
<!-- Generator: Adobe Illustrator 24.1.0, SVG Export Plug-In . SVG Version: 6.00 Build 0)  -->
<svg version="1.1" id="Sparks" xmlns="http://www.w3.org/2000/svg" xmlns:xlink="http://www.w3.org/1999/xlink" x="0px" y="0px"
	 viewBox="0 0 17.3 32" style="enable-background:new 0 0 17.3 32;" xml:space="preserve">
<style type="text/css">
	.st0{display:none;}
	.st1{display:none;fill:none;}
	.st2{display:inline;}
	.st3{display:none;fill:none;stroke:#000000;stroke-width:0.25;stroke-miterlimit:10;}
</style>
<path class="st0" d="M90.1-9.7c-0.7-1.7-1.4-3.4-2-5.2c-0.9-2.6-2.7-4.1-5.2-5c-1.6-0.6-3.1-1.2-4.8-1.8c2-0.8,3.9-1.5,5.8-2.3
	c1.9-0.7,3.2-2,3.9-3.9c0.8-1.9,1.6-3.9,2.3-5.7c0.9,2.1,1.7,4.2,2.6,6.3c0.6,1.4,1.6,2.4,3,2.9c2.1,0.9,4.2,1.8,6.4,2.7
	c-0.5,0.2-1,0.4-1.5,0.6c-1.3,0.5-2.6,1.1-4,1.5c-2.3,0.8-3.7,2.5-4.5,4.8C91.5-13.1,90.8-11.4,90.1-9.7z"/>
<path class="st0" d="M102.1-25.6c-0.4-1-0.8-2-1.2-3c-0.5-1.5-1.6-2.4-3.1-2.9c-0.9-0.3-1.8-0.7-2.8-1.1c1.2-0.5,2.3-0.9,3.4-1.3
	c1.1-0.4,1.9-1.2,2.3-2.3c0.4-1.1,0.9-2.3,1.3-3.4c0.5,1.2,1,2.5,1.5,3.7c0.3,0.8,0.9,1.4,1.7,1.7c1.2,0.5,2.5,1,3.7,1.6
	c-0.3,0.1-0.6,0.2-0.9,0.3c-0.8,0.3-1.5,0.6-2.3,0.9c-1.4,0.5-2.2,1.5-2.7,2.8C102.9-27.6,102.5-26.6,102.1-25.6z"/>
<path class="st0" d="M85.3-32.6c-0.2-0.6-0.5-1.2-0.7-1.8c-0.3-0.9-1-1.5-1.9-1.8c-0.6-0.2-1.1-0.4-1.7-0.6c0.7-0.3,1.4-0.5,2.1-0.8
	c0.7-0.3,1.1-0.7,1.4-1.4c0.3-0.7,0.6-1.4,0.8-2c0.3,0.7,0.6,1.5,0.9,2.3c0.2,0.5,0.6,0.8,1,1c0.7,0.3,1.5,0.6,2.3,1
	c-0.2,0.1-0.3,0.1-0.5,0.2c-0.5,0.2-0.9,0.4-1.4,0.5c-0.8,0.3-1.3,0.9-1.6,1.7C85.8-33.8,85.6-33.2,85.3-32.6z"/>
<path class="st0" d="M1,31.9c0.9-2.4,1.8-4.8,2.8-7.2C4.5,22.8,5.3,20.9,6,19c0.2-0.6,0.1-0.8-0.5-0.8c-1.9,0-3.8,0-5.8,0
	c-0.3,0-0.6,0-0.9,0c0-0.1-0.1-0.1-0.1-0.2C3.8,12,9,6,14.1,0c0.1,0,0.1,0.1,0.2,0.1C12.2,4.3,10.1,8.6,8,13c2.2,0,4.3,0,6.3,0
	c0,0.1,0.1,0.2,0.1,0.3C10,19.5,5.6,25.8,1.2,32C1.1,32,1.1,31.9,1,31.9z"/>
<path class="st0" d="M-3.7,8.9c-0.1,0-0.3,0-0.4-0.1l-3.8-2.3c-0.2-0.1-0.3-0.4-0.2-0.7C-8,5.6-7.7,5.5-7.4,5.7L-3.6,8
	c0.2,0.1,0.3,0.4,0.2,0.7C-3.5,8.8-3.6,8.8-3.7,8.9z"/>
<circle class="st0" cx="3.2" cy="10.8" r="2.2"/>
<line class="st1" x1="3.2" y1="10.8" x2="-4.7" y2="2.9"/>
<line class="st1" x1="3.2" y1="10.8" x2="-5.2" y2="10.8"/>
<line class="st1" x1="3.2" y1="10.8" x2="3.2" y2="2.4"/>
<path class="st0" d="M-3.7,10.7c-0.1,0.1-0.2,0.2-0.3,0.2L-8.3,12c-0.3,0.1-0.5-0.1-0.6-0.4c-0.1-0.3,0.1-0.5,0.4-0.6l4.3-1.1
	c0.3-0.1,0.5,0.1,0.6,0.4C-3.6,10.5-3.6,10.6-3.7,10.7z"/>
<path class="st0" d="M-2.4,7.6c-0.1-0.1-0.2-0.2-0.2-0.3l-1.1-4.3c-0.1-0.3,0.1-0.5,0.4-0.6s0.5,0.1,0.6,0.4L-1.7,7
	C-1.6,7.3-1.8,7.6-2,7.6C-2.2,7.7-2.3,7.6-2.4,7.6z"/>
<path d="M0,15.6l6.9,1c-1.5,5.1-3,10.3-4.5,15.4c0,0,0.1,0,0.1,0c4.9-7.3,9.8-14.6,14.7-21.9c-2.7-0.4-5.3-0.7-8-1.1
	c1.5-3,3-6,4.5-9c-0.1,0-0.2,0-0.2,0C11,0,5.8,0,5.8,0L0,15.6z"/>
<g class="st0">
	<path class="st2" d="M-4,9.3c-0.1,0-0.3,0-0.4-0.1l-4.2-2.6c-0.3-0.2-0.3-0.5-0.2-0.8S-8.3,5.5-8,5.7l4.2,2.6
		C-3.5,8.4-3.5,8.8-3.6,9C-3.7,9.1-3.8,9.2-4,9.3z"/>
	<path class="st2" d="M-4,11.3c-0.1,0.1-0.2,0.2-0.3,0.2l-4.8,1.2c-0.3,0.1-0.6-0.1-0.7-0.4c-0.1-0.3,0.1-0.6,0.4-0.7l4.8-1.2
		c0.3-0.1,0.6,0.1,0.7,0.4C-3.9,11-3.9,11.2-4,11.3z"/>
	<path class="st2" d="M-2.5,7.8c-0.1-0.1-0.2-0.2-0.2-0.3l-1.2-4.8C-4,2.4-3.8,2.1-3.5,2C-3.2,2-2.9,2.2-2.9,2.5l1.2,4.8
		c0.1,0.3-0.1,0.6-0.4,0.7C-2.3,7.9-2.4,7.9-2.5,7.8z"/>
</g>
<line class="st3" x1="-8.2" y1="1.2" x2="21.3" y2="30.8"/>
<g class="st0">
	<path class="st2" d="M13.7,19.1c0.1,0,0.3,0,0.4,0.1l4.2,2.6c0.3,0.2,0.3,0.5,0.2,0.8c-0.2,0.3-0.5,0.3-0.8,0.2l-4.2-2.6
		c-0.3-0.2-0.3-0.5-0.2-0.8C13.5,19.3,13.6,19.2,13.7,19.1z"/>
	<path class="st2" d="M13.8,17.1c0.1-0.1,0.2-0.2,0.3-0.2l4.8-1.2c0.3-0.1,0.6,0.1,0.7,0.4c0.1,0.3-0.1,0.6-0.4,0.7l-4.8,1.2
		c-0.3,0.1-0.6-0.1-0.7-0.4C13.7,17.4,13.7,17.2,13.8,17.1z"/>
	<path class="st2" d="M12.3,20.6c0.1,0.1,0.2,0.2,0.2,0.3l1.2,4.8c0.1,0.3-0.1,0.6-0.4,0.7c-0.3,0.1-0.6-0.1-0.7-0.4l-1.2-4.8
		c-0.1-0.3,0.1-0.6,0.4-0.7C12,20.5,12.2,20.5,12.3,20.6z"/>
</g>
</svg>
