<?xml version="1.0" encoding="utf-8"?>
<!-- Generator: Adobe Illustrator 24.1.0, SVG Export Plug-In . SVG Version: 6.00 Build 0)  -->
<svg version="1.1" id="AddEmoji" xmlns="http://www.w3.org/2000/svg" xmlns:xlink="http://www.w3.org/1999/xlink" x="0px" y="0px"
	 viewBox="0 0 40.5 40.3" style="enable-background:new 0 0 40.5 40.3;" xml:space="preserve">
<style type="text/css">
	.st0{fill:#909090;}
</style>
<path class="st0" d="M37.4,27.5h-3.2v-2.7c0.9-2.1,1.4-4.4,1.4-6.8c0-4.9-2-9.3-5.2-12.5C27.2,2.3,22.8,0.3,18,0.3h0
	C8.2,0.3,0.3,8.2,0.3,18c0,9.7,7.9,17.6,17.6,17.6c2.6,0,5-0.5,7.2-1.5h2.5v3.2c0,1.5,1.2,2.7,2.7,2.7h1.1c1.5,0,2.7-1.2,2.7-2.7
	v-3.2h3.2c1.5,0,2.7-1.2,2.7-2.7v-1.1C40.1,28.7,38.9,27.5,37.4,27.5z M23.7,10.6c1.7,0,3.8,2.1,4,5.1c0,0.3-0.2,0.6-0.5,0.6
	c-0.2,0-0.4-0.1-0.5-0.3l-0.7-1.2c-0.4-0.9-1.3-1.5-2.2-1.5c-1,0.1-1.8,0.6-2.2,1.5L20.7,16c-0.2,0.3-0.5,0.4-0.8,0.2
	c-0.2-0.1-0.3-0.3-0.3-0.5C19.9,12.6,22,10.6,23.7,10.6z M8.6,16.2c-0.2-0.1-0.3-0.3-0.3-0.5h0c0.2-3,2.3-5.1,4-5.1
	c1.7,0,3.7,2.1,4,5.1c0,0.3-0.2,0.6-0.5,0.6c-0.2,0-0.4-0.1-0.5-0.3l-0.7-1.2c-0.4-0.9-1.3-1.5-2.2-1.5c-1,0.1-1.8,0.6-2.2,1.5
	L9.4,16C9.2,16.2,8.9,16.3,8.6,16.2z M11.2,25.7c-0.5-0.4-1-0.9-1.4-1.4c-0.4-0.5-0.3-1.2,0.1-1.6c0.5-0.4,1.2-0.3,1.6,0.1
	c3,3.6,8.2,4,11.8,1.1c0.4-0.3,0.7-0.7,1.1-1.1c0.4-0.5,1.1-0.5,1.6-0.1c0.5,0.4,0.5,1.1,0.1,1.6C22.4,28.9,15.7,29.5,11.2,25.7z
	 M38.5,31.3c0,0.6-0.5,1.1-1.1,1.1h-4.8v4.8c0,0.6-0.5,1.1-1.1,1.1h-1.1c-0.6,0-1.1-0.5-1.1-1.1v-4.8h-4.8c-0.6,0-1.1-0.5-1.1-1.1
	v-1.1c0-0.6,0.5-1.1,1.1-1.1h4.8v-4.8c0-0.6,0.5-1.1,1.1-1.1h1.1c0.6,0,1.1,0.5,1.1,1.1v4.8h4.8c0.6,0,1.1,0.5,1.1,1.1V31.3z"/>
</svg>
