<?xml version="1.0" encoding="utf-8"?>
<!-- Generator: Adobe Illustrator 24.1.2, SVG Export Plug-In . SVG Version: 6.00 Build 0)  -->
<svg version="1.1" id="Gear" xmlns="http://www.w3.org/2000/svg" xmlns:xlink="http://www.w3.org/1999/xlink" x="0px" y="0px"
	 viewBox="0 0 32 32" style="enable-background:new 0 0 32 32;" xml:space="preserve">
<path id="Icon_ionic-md-settings" d="M28.1,17.6c0.1-0.5,0.1-1.1,0.1-1.6c0-0.6-0.1-1-0.1-1.6l3.4-2.6c0.3-0.2,0.4-0.7,0.2-1
	c0,0,0,0,0,0l-3.3-5.5c-0.2-0.3-0.6-0.5-1-0.3l-4.1,1.6c-0.8-0.7-1.8-1.2-2.8-1.6l-0.6-4.2C20,0.3,19.6,0,19.2,0h-6.5
	c-0.4,0-0.7,0.3-0.8,0.6l-0.7,4.2c-1,0.4-1.9,1-2.8,1.6L4.3,4.9c-0.4-0.2-0.8,0-1,0.3l-3.3,5.5c-0.2,0.3-0.1,0.8,0.2,1l3.5,2.6
	c0,0.6-0.1,1-0.1,1.6c0,0.6,0.1,1,0.1,1.6l-3.4,2.6c-0.3,0.2-0.4,0.7-0.2,1c0,0,0,0,0,0l3.3,5.5c0.2,0.3,0.6,0.5,1,0.3l4.1-1.6
	c0.9,0.7,1.8,1.2,2.8,1.6l0.7,4.2c0.1,0.4,0.4,0.7,0.8,0.6h6.5c0.4,0,0.7-0.3,0.8-0.6l0.7-4.2c1-0.4,1.9-1,2.8-1.6l4.1,1.6
	c0.4,0.2,0.8,0,1-0.3l3.3-5.5c0.2-0.3,0.1-0.8-0.2-1L28.1,17.6z M16,21.6c-3.1,0.1-5.7-2.4-5.7-5.5s2.4-5.7,5.5-5.7
	c0.1,0,0.2,0,0.2,0c3.1-0.1,5.7,2.4,5.7,5.5c0.1,3.1-2.4,5.7-5.5,5.7C16.1,21.6,16,21.6,16,21.6z"/>
</svg>
