<?xml version="1.0" encoding="utf-8"?>
<!-- Generator: Adobe Illustrator 24.1.0, SVG Export Plug-In . SVG Version: 6.00 Build 0)  -->
<svg version="1.1" id="Hashtag" xmlns="http://www.w3.org/2000/svg" xmlns:xlink="http://www.w3.org/1999/xlink" x="0px" y="0px"
	 viewBox="0 0 32 32" style="enable-background:new 0 0 32 32;" xml:space="preserve">
<path id="Icon_awesome-hashtag" d="M31.5,10.7L32,7.9c0.1-0.5-0.2-0.9-0.7-1c-0.1,0-0.1,0-0.2,0h-5.3l1-5.9c0.1-0.5-0.2-0.9-0.7-1
	C26.1,0,26,0,26,0h-2.9c-0.4,0-0.8,0.3-0.8,0.7l-1.1,6.2h-7l1-5.8c0.1-0.5-0.2-0.9-0.7-1c-0.1,0-0.1,0-0.2,0h-2.9
	c-0.4,0-0.8,0.3-0.8,0.7L9.5,6.9H3.8C3.4,6.9,3,7.2,3,7.6l-0.5,2.9c-0.1,0.5,0.2,0.9,0.7,1c0.1,0,0.1,0,0.2,0h5.3L7,20.6H1.4
	c-0.4,0-0.8,0.3-0.8,0.7L0,24.1c-0.1,0.5,0.2,0.9,0.7,1c0.1,0,0.1,0,0.2,0h5.3l-1,5.9c-0.1,0.5,0.2,0.9,0.7,1C5.9,32,6,32,6,32h2.9
	c0.4,0,0.8-0.3,0.8-0.7l1.1-6.2h7l-1,5.8c-0.1,0.5,0.2,0.9,0.7,1c0.1,0,0.1,0,0.2,0h2.9c0.4,0,0.8-0.3,0.8-0.7l1.1-6.2h5.7
	c0.4,0,0.8-0.3,0.8-0.7l0.5-2.9c0.1-0.5-0.2-0.9-0.7-1c-0.1,0-0.1,0-0.2,0h-5.3l1.6-9.1h5.7C31,11.4,31.4,11.1,31.5,10.7z
	 M18.7,20.6h-7l1.6-9.1h7L18.7,20.6z"/>
</svg>
