<?xml version="1.0" encoding="utf-8"?>
<!-- Generator: Adobe Illustrator 24.3.0, SVG Export Plug-In . SVG Version: 6.00 Build 0)  -->
<svg version="1.1" id="Logo" xmlns="http://www.w3.org/2000/svg" xmlns:xlink="http://www.w3.org/1999/xlink" x="0px" y="0px"
	 viewBox="0 0 32 16.8" style="enable-background:new 0 0 32 16.8;" xml:space="preserve">
<path d="M31.5,1.9L31.5,1.9c-2-1.3-4.2-2-6.6-1.9c-2.2,0.1-4.2,0.8-6,2c-1.1,0.7-2.1,1.7-2.9,2.8c-0.8-1.1-1.8-2-2.9-2.8
	c-1.8-1.2-3.9-1.9-6-2C4.7-0.1,2.4,0.6,0.5,1.9C0.1,2.1,0,2.5,0,2.9c0.3,2,0.9,4,2,5.7c0.5,0.9,1.1,1.7,1.8,2.5
	c1.6,1.8,3.6,3.3,5.9,4.2l0.9,0.4c1.7,0.7,3.5,1,5.3,1c2,0,3.9-0.3,5.7-1.1l0.9-0.4c0.6-0.3,1.2-0.6,1.8-0.9
	C28.5,12,31.3,7.8,32,2.9C32,2.5,31.9,2.1,31.5,1.9z M29.8,3.3c-0.3,1.5-0.8,3-1.6,4.3c-1.3,2.3-3.1,4.1-5.4,5.3
	c-0.4-3-2.4-5.5-5.2-6.7c0.6-1,1.5-1.8,2.5-2.4C23,1.7,26.7,1.6,29.8,3.3z M9.2,12.9c-3.6-2-6.2-5.5-7-9.6c3-1.7,6.8-1.5,9.7,0.5
	c1,0.6,1.8,1.4,2.5,2.4C11.6,7.4,9.7,9.9,9.2,12.9z M20.6,14c-1.5,0.5-3.1,0.8-4.7,0.8c-0.3,0-0.6,0-0.9,0c-0.2,0-0.4,0-0.6-0.1
	c-0.3,0-0.6-0.1-0.9-0.1c-0.2,0-0.4-0.1-0.6-0.1c-0.5-0.1-0.9-0.3-1.4-0.4c0-1.6,0.6-3.2,1.7-4.3C13.4,9.5,13.7,9.2,14,9l0.2-0.1
	c0.1-0.1,0.3-0.2,0.4-0.2c0.1-0.1,0.2-0.1,0.3-0.1c0.4-0.2,0.8-0.3,1.3-0.3c1.2,0.1,2.3,0.7,3.1,1.7C20.2,11.1,20.6,12.5,20.6,14z"
	/>
</svg>
