<?xml version="1.0" encoding="utf-8"?>
<!-- Generator: Adobe Illustrator 24.1.0, SVG Export Plug-In . SVG Version: 6.00 Build 0)  -->
<svg version="1.1" id="Lock" xmlns="http://www.w3.org/2000/svg" xmlns:xlink="http://www.w3.org/1999/xlink" x="0px" y="0px"
	 viewBox="0 0 28.2 32" style="enable-background:new 0 0 28.2 32;" xml:space="preserve">
<path id="Icon_awesome-lock" d="M25.2,13.9h-1.5V9.4c-0.1-5.3-4.4-9.5-9.7-9.4C8.8,0.1,4.6,4.2,4.5,9.4v4.5H3c-1.7,0-3,1.4-3,3V29
	c0,1.7,1.4,3,3,3h22.1c1.7,0,3-1.4,3-3V16.9C28.2,15.3,26.8,13.9,25.2,13.9z M18.6,13.9H9.6V9.4c0-2.5,2-4.5,4.5-4.5
	c2.5,0,4.5,2,4.5,4.5V13.9z"/>
</svg>
