<?xml version="1.0" encoding="utf-8"?>
<!-- Generator: Adobe Illustrator 24.2.1, SVG Export Plug-In . SVG Version: 6.00 Build 0)  -->
<svg version="1.1" id="Logo" xmlns="http://www.w3.org/2000/svg" xmlns:xlink="http://www.w3.org/1999/xlink" x="0px" y="0px"
	 viewBox="0 0 32 32" style="enable-background:new 0 0 32 32;" xml:space="preserve">
<path d="M27.3,4.7C11.9-9.7-9.7,11.9,4.7,27.3C20.1,41.7,41.7,20.1,27.3,4.7z M26.2,5.8c1.2,1.2,2.2,2.6,2.9,4.1
	c-1.2-1.2-2.8-2.1-4.5-2.4c-0.3-1.7-1.2-3.3-2.4-4.5C23.7,3.6,25,4.6,26.2,5.8z M29.3,12.6c-1.7,1.1-3.8,1.4-5.8,0.8
	c0.8-1.3,1.2-2.9,1.2-4.4C26.7,9.4,28.4,10.7,29.3,12.6z M11.5,16c0.1-5.9,8.9-5.9,9,0C20.4,21.9,11.6,21.9,11.5,16z M12.8,22.2
	c-1.2,0.8-2.6,1.1-4,1.1c-0.1-1.4,0.3-2.9,1.1-4.1C11.1,19.9,12.1,20.9,12.8,22.2z M9.8,12.8c-0.8-1.2-1.2-2.6-1.1-4.1c0,0,0,0,0,0
	c1.4-0.1,2.8,0.3,4,1.1C12.1,11.1,11.1,12.1,9.8,12.8z M22.2,19.2C22.2,19.2,22.2,19.2,22.2,19.2c0.8,1.2,1.1,2.6,1.1,4
	c-1.3,0.2-2.9-0.3-4-1C19.9,20.9,20.9,19.9,22.2,19.2z M19.3,9.8L19.3,9.8c1.2-0.8,2.6-1.1,4-1.1c0.1,1.4-0.3,2.9-1.1,4.1
	c0,0,0,0,0,0C20.9,12.1,19.9,11.1,19.3,9.8z M19.6,2.7c1.7,0.9,3.1,2.6,3.5,4.6c-1.2,0-2.4,0.2-3.5,0.7c-0.3,0.1-0.6,0.3-0.8,0.4
	C18.2,6.6,18.5,4.4,19.6,2.7z M16,1.5c0.9,0,1.7,0.1,2.5,0.2c-1.7,2.5-2,6-0.6,8.7c-1.2-0.4-2.7-0.4-3.9,0c1.4-2.7,1.2-6.2-0.6-8.7
	C14.3,1.6,15.2,1.5,16,1.5z M12.5,2.7c1.1,1.7,1.4,3.8,0.8,5.7C12,7.7,10.5,7.3,8.9,7.3C9.4,5.4,10.7,3.7,12.5,2.7z M5.8,5.8
	C7,4.5,8.4,3.6,9.9,2.9C8.6,4.1,7.8,5.7,7.4,7.4C5.7,7.8,4.1,8.6,2.9,9.9C3.6,8.4,4.5,7,5.8,5.8z M6.2,9.3C6.6,9.2,6.9,9,7.3,8.9
	c0,1.5,0.4,3.1,1.2,4.4c-2,0.6-4.1,0.3-5.8-0.8C3.5,11.1,4.7,9.9,6.2,9.3z M1.5,16c0-0.8,0.1-1.6,0.2-2.4c2.5,1.7,5.9,1.9,8.7,0.5
	c0,0,0,0,0,0h0c-0.4,1.2-0.4,2.6,0,3.8c-2.7-1.4-6.1-1.2-8.7,0.5C1.6,17.6,1.5,16.8,1.5,16z M7.4,18.4c0.4,0,0.8,0.1,1.1,0.2
	c-0.8,1.3-1.2,2.9-1.2,4.4c-2-0.5-3.7-1.8-4.6-3.6C4.1,18.6,5.7,18.2,7.4,18.4z M5.8,26.2c-1.2-1.2-2.2-2.6-2.9-4.1
	c1.2,1.3,2.8,2.1,4.6,2.4c0.3,1.7,1.2,3.4,2.4,4.6C8.4,28.4,7,27.4,5.8,26.2z M12.5,29.3c-1.7-0.9-3.1-2.6-3.5-4.6
	c1.2,0,2.4-0.2,3.5-0.7c0.3-0.1,0.6-0.3,0.8-0.4C13.9,25.5,13.5,27.6,12.5,29.3z M16,30.5c-0.8,0-1.7-0.1-2.5-0.2
	c1.7-2.5,2-6,0.6-8.7c1.2,0.4,2.7,0.4,3.9,0c-1.4,2.7-1.2,6.1,0.6,8.7C17.7,30.4,16.9,30.5,16,30.5z M19.6,29.3
	c-1.1-1.7-1.4-3.8-0.8-5.7c1.3,0.8,2.8,1.2,4.4,1.2C22.6,26.7,21.3,28.3,19.6,29.3z M26.2,26.2c-1.2,1.2-2.6,2.2-4,2.9
	c1.2-1.2,2.1-2.8,2.4-4.5c1.7-0.3,3.3-1.2,4.5-2.4C28.4,23.7,27.4,25,26.2,26.2z M25.8,22.7c-0.4,0.2-0.7,0.3-1.1,0.4
	c0-1.5-0.4-3.1-1.2-4.4c2-0.6,4.1-0.3,5.8,0.8C28.6,20.9,27.3,22.1,25.8,22.7z M24.5,17c-1,0.1-2,0.4-2.9,0.9c0.4-1.2,0.4-2.6,0-3.8
	c2.7,1.4,6.1,1.3,8.7-0.5c0.3,1.5,0.3,3.2,0,4.7C28.6,17.2,26.5,16.8,24.5,17z"/>
</svg>
