<?xml version="1.0" encoding="utf-8"?>
<!-- Generator: Adobe Illustrator 24.1.0, SVG Export Plug-In . SVG Version: 6.00 Build 0)  -->
<svg version="1.1" id="Logo" xmlns="http://www.w3.org/2000/svg" xmlns:xlink="http://www.w3.org/1999/xlink" x="0px" y="0px"
	 viewBox="0 0 32 32" style="enable-background:new 0 0 32 32;" xml:space="preserve">
<path d="M16,32c-4.3,0-8.3-1.7-11.3-4.7c-3-3-4.7-7-4.7-11.3c0-4.3,1.7-8.3,4.7-11.3S11.7,0,16,0c4.3,0,8.3,1.7,11.3,4.7
	S32,11.7,32,16c0,4.3-1.7,8.3-4.7,11.3C24.3,30.3,20.3,32,16,32z M13.5,30.3c0.8,0.1,1.6,0.2,2.5,0.2c0.9,0,1.7-0.1,2.5-0.2
	c-0.5-0.8-0.9-1.7-1.2-2.6c-0.3-1.1-0.4-2.2-0.2-3.3c0.1-0.8,0.3-1.6,0.6-2.3c0,0,0,0,0,0c0.1-0.2,0.2-0.4,0.3-0.6
	c-0.6,0.2-1.3,0.3-2,0.3c-0.7,0-1.3-0.1-1.9-0.3c0.1,0.2,0.2,0.4,0.3,0.6c0,0,0,0,0,0c0.3,0.7,0.5,1.5,0.6,2.3c0,0,0,0,0,0
	c0.1,1.1,0,2.2-0.2,3.3C14.4,28.7,14,29.6,13.5,30.3z M8.9,24.8c0.1,0.4,0.2,0.8,0.4,1.1c0.6,1.5,1.8,2.7,3.2,3.5
	c0.4-0.6,0.7-1.3,0.9-2c0.2-0.9,0.3-1.8,0.2-2.7l0,0c0-0.4-0.1-0.7-0.2-1.1C12,24.4,10.4,24.8,8.9,24.8z M18.7,23.6
	c-0.1,0.4-0.2,0.7-0.2,1.1c-0.1,0.9,0,1.8,0.2,2.7c0,0,0,0,0,0c0.2,0.7,0.5,1.4,0.9,2c1.4-0.8,2.5-2,3.2-3.5
	c0.2-0.4,0.3-0.7,0.4-1.1c0,0,0,0-0.1,0C21.6,24.8,20.1,24.4,18.7,23.6z M2.8,22.2c0.7,1.5,1.7,2.9,2.9,4.1c1.2,1.2,2.6,2.2,4.1,2.9
	C9,28.4,8.4,27.5,8,26.5c-0.3-0.6-0.4-1.2-0.6-1.8c-0.2,0-0.5-0.1-0.7-0.2c-0.4-0.1-0.8-0.2-1.1-0.4C4.5,23.6,3.6,23,2.8,22.2z
	 M24.6,24.6c-0.1,0.6-0.3,1.2-0.6,1.8c-0.4,1-1.1,1.9-1.8,2.7c1.5-0.7,2.9-1.7,4.1-2.9c1.2-1.2,2.2-2.6,2.9-4.1
	c-0.8,0.8-1.7,1.4-2.7,1.8c-0.4,0.2-0.7,0.3-1.1,0.4C25.1,24.5,24.9,24.6,24.6,24.6z M19.3,22.2c1.2,0.8,2.6,1.1,4,1.1
	c0-0.1,0-0.2,0-0.3c0-0.6-0.1-1.3-0.3-1.9c-0.2-0.7-0.5-1.4-0.9-2C21,19.9,20,21,19.3,22.2z M8.7,23.3c1.4,0.1,2.8-0.3,4-1.1
	c-0.7-1.3-1.7-2.3-2.9-3c-0.4,0.6-0.7,1.3-0.9,2c-0.2,0.6-0.3,1.2-0.3,1.9C8.7,23.1,8.7,23.2,8.7,23.3z M24.5,20.8
	c0.2,0.8,0.3,1.5,0.3,2.3c0.1,0,0.1,0,0.2,0c0.3-0.1,0.6-0.2,0.9-0.3c1.5-0.7,2.8-1.8,3.5-3.3c-1.4-0.9-3-1.2-4.7-1
	c-0.3,0-0.6,0.1-1,0.2c-0.1,0-0.1,0-0.2,0C24,19.4,24.3,20.1,24.5,20.8z M2.6,19.5c0.8,1.5,2,2.6,3.5,3.3c0.3,0.1,0.6,0.2,0.9,0.3
	c0.1,0,0.1,0,0.2,0c0,0,0,0,0-0.1c0-0.8,0.1-1.5,0.3-2.2c0.2-0.8,0.5-1.5,0.9-2.1c-0.1,0-0.1,0-0.2,0c-0.3-0.1-0.7-0.2-1-0.2
	C5.7,18.2,4,18.6,2.6,19.5z M16,11.5c-2.5,0-4.5,2-4.5,4.5s2,4.5,4.5,4.5c2.5,0,4.5-2,4.5-4.5S18.5,11.5,16,11.5z M1.6,13.6
	c-0.1,0.8-0.2,1.6-0.2,2.4c0,0.8,0.1,1.6,0.2,2.4c1.7-1.2,3.8-1.7,5.9-1.4c0.4,0,0.8,0.1,1.2,0.2c0.4,0.1,0.8,0.3,1.2,0.4
	c0.2,0.1,0.3,0.2,0.5,0.2C10.2,17.3,10,16.7,10,16c0-0.7,0.1-1.3,0.3-1.9c-0.2,0.1-0.3,0.2-0.5,0.2c-0.4,0.2-0.8,0.3-1.2,0.4
	C8.3,14.9,7.9,15,7.5,15C5.4,15.3,3.4,14.8,1.6,13.6z M25.6,16.9c1.7,0,3.3,0.5,4.7,1.4c0.1-0.8,0.2-1.6,0.2-2.4
	c0-0.8-0.1-1.6-0.2-2.4c-1.7,1.1-3.8,1.6-5.8,1.4c-0.4,0-0.8-0.1-1.2-0.2c-0.4-0.1-0.8-0.3-1.2-0.4c-0.2-0.1-0.4-0.2-0.5-0.3
	c0.2,0.6,0.3,1.2,0.3,1.9c0,0.7-0.1,1.3-0.3,1.9c0.2-0.1,0.4-0.2,0.5-0.3c0.4-0.2,0.8-0.3,1.2-0.4c0.4-0.1,0.8-0.2,1.2-0.2
	C24.9,17,25.3,16.9,25.6,16.9z M2.6,12.5c1.4,0.9,3,1.2,4.7,1c0.3,0,0.6-0.1,1-0.2c0.1,0,0.1,0,0.2,0c-0.4-0.7-0.7-1.4-0.9-2.1
	C7.4,10.5,7.3,9.7,7.3,9c0,0,0,0,0-0.1c-0.1,0-0.1,0-0.2,0C6.8,9,6.5,9.1,6.2,9.3C4.6,9.9,3.4,11.1,2.6,12.5z M23.6,13.3
	c0.1,0,0.1,0,0.2,0c0.3,0.1,0.7,0.2,1,0.2c1.7,0.2,3.3-0.2,4.7-1c-0.8-1.5-2-2.6-3.5-3.3C25.6,9.1,25.3,9,25,8.9c-0.1,0-0.1,0-0.2,0
	c0,0,0,0,0,0.1c0,0.8-0.1,1.5-0.3,2.2C24.3,11.9,24,12.7,23.6,13.3z M8.7,9c0,0.6,0.1,1.3,0.3,1.9c0.2,0.7,0.5,1.4,0.9,2
	c1.3-0.7,2.3-1.7,2.9-3c-1.2-0.8-2.6-1.1-4-1.1C8.7,8.8,8.7,8.9,8.7,9z M19.3,9.8c0.7,1.3,1.7,2.3,2.9,3c0.4-0.6,0.7-1.3,0.9-2
	c0.2-0.6,0.3-1.2,0.3-1.9c0-0.1,0-0.2,0-0.3C21.9,8.6,20.5,9,19.3,9.8z M16,10c0.7,0,1.4,0.1,2,0.3c-0.1-0.2-0.2-0.4-0.3-0.6
	c0,0,0,0,0,0c-0.3-0.7-0.5-1.5-0.6-2.3c0,0,0,0,0,0c-0.1-1.1,0-2.2,0.2-3.3c0.3-0.9,0.7-1.8,1.2-2.6c-0.8-0.1-1.7-0.2-2.5-0.2
	c-0.8,0-1.7,0.1-2.5,0.2c0.5,0.8,0.9,1.7,1.2,2.6l0,0c0.3,1.1,0.4,2.2,0.2,3.3c-0.1,0.8-0.3,1.6-0.6,2.3c0,0,0,0,0,0
	c-0.1,0.2-0.2,0.4-0.3,0.5C14.7,10.2,15.3,10,16,10z M9.9,2.8C8.3,3.5,6.9,4.5,5.7,5.7C4.5,6.9,3.5,8.3,2.8,9.9
	C3.6,9,4.5,8.4,5.6,7.9C6,7.8,6.3,7.7,6.7,7.6c0.2-0.1,0.5-0.1,0.7-0.2C7.5,6.8,7.7,6.1,8,5.6C8.4,4.5,9.1,3.6,9.9,2.8z M24.6,7.4
	c0.2,0,0.5,0.1,0.7,0.2c0.4,0.1,0.8,0.2,1.1,0.4c1,0.4,2,1.1,2.7,1.9c-0.7-1.5-1.7-2.9-2.9-4.1c-1.2-1.2-2.6-2.2-4.1-2.9
	c0.8,0.8,1.4,1.7,1.9,2.7C24.3,6.1,24.5,6.8,24.6,7.4z M18.5,7.3c0,0.4,0.1,0.7,0.2,1.1c1.3-0.8,2.8-1.2,4.4-1.2
	c-0.1-0.4-0.2-0.8-0.4-1.1c-0.6-1.5-1.8-2.7-3.2-3.5c-0.4,0.6-0.7,1.3-0.9,2C18.5,5.5,18.4,6.4,18.5,7.3L18.5,7.3z M9,7.3
	c1.5,0,3,0.4,4.3,1.2c0.1-0.4,0.2-0.7,0.2-1.1c0.1-0.9,0-1.8-0.2-2.7c0,0,0,0,0,0c-0.2-0.7-0.5-1.4-0.9-2c-1.4,0.8-2.5,2-3.2,3.5
	C9.1,6.5,9,6.9,9,7.3C8.9,7.3,8.9,7.3,9,7.3z"/>
</svg>
