<?xml version="1.0" encoding="utf-8"?>
<!-- Generator: Adobe Illustrator 24.1.0, SVG Export Plug-In . SVG Version: 6.00 Build 0)  -->
<svg version="1.1" id="MagnifyingGlass" xmlns="http://www.w3.org/2000/svg" xmlns:xlink="http://www.w3.org/1999/xlink" x="0px"
	 y="0px" viewBox="0 0 32 32" style="enable-background:new 0 0 32 32;" xml:space="preserve">
<path id="Icon_open-magnifying-glass" d="M13.9,0C6.2,0,0,6.3,0,13.9s6.2,13.9,13.9,13.9c0,0,0,0,0,0c2.3,0,4.6-0.5,6.6-1.6
	c0.2,0.2,0.3,0.4,0.5,0.5l4,4c1.5,1.7,4,1.8,5.7,0.3c1.7-1.5,1.8-4,0.3-5.7c-0.1-0.1-0.2-0.2-0.3-0.3l-4-4c-0.2-0.2-0.4-0.4-0.6-0.5
	c1.1-2,1.7-4.3,1.7-6.6C27.8,6.2,21.6,0,13.9,0L13.9,0z M13.9,4c5.4,0,9.9,4.4,9.9,9.8c0,0,0,0.1,0,0.1c0,2.5-0.9,5-2.6,6.8
	l-0.1,0.1c-0.2,0.2-0.4,0.3-0.5,0.5c-1.8,1.6-4.2,2.5-6.7,2.5c-5.5,0-9.9-4.4-9.9-9.9S8.4,4,13.9,4L13.9,4z"/>
</svg>
