<?xml version="1.0" encoding="utf-8"?>
<!-- Generator: Adobe Illustrator 25.2.3, SVG Export Plug-In . SVG Version: 6.00 Build 0)  -->
<svg version="1.1" id="Location" xmlns="http://www.w3.org/2000/svg" xmlns:xlink="http://www.w3.org/1999/xlink" x="0px" y="0px"
	 viewBox="0 0 32 32" style="enable-background:new 0 0 32 32;" xml:space="preserve">
<g id="FSHnnE.tif">
	<g>
		<path d="M17,31.4c-0.7,0-1.3,0-2,0c-0.1,0-0.2-0.1-0.3-0.1c-1.4-0.1-2.8-0.3-4.1-0.7c-1.1-0.4-2.2-0.9-3-1.7
			c-0.5-0.6-0.9-1.2-0.7-2c0.1-0.9,0.7-1.5,1.4-2c1.1-0.8,2.3-1.2,3.6-1.5c0.4-0.1,0.9-0.2,1.3-0.3c-0.1-0.1-0.1-0.2-0.2-0.3
			c-1.5-2.6-3.1-5.2-4.6-7.8C7,12.8,6.5,10.5,7,8.1c0.9-4.9,5.6-8.2,10.6-7.3c3.6,0.6,6.6,3.4,7.4,7c0.1,0.7,0.2,1.3,0.3,2
			c0,0,0,0.1,0,0.1c0,0.1,0,0.3-0.1,0.4c-0.1,1.5-0.5,2.9-1.3,4.2c-1.7,2.7-3.3,5.4-5,8.1c-0.1,0.1-0.1,0.2-0.2,0.4
			c0.2,0,0.3,0.1,0.4,0.1c1.1,0.2,2.2,0.4,3.3,0.9c1.4,0.6,2.6,1.4,2.9,3.1c0,0,0,0,0,0.1c-0.1,0.8-0.5,1.5-1.1,2
			c-0.3,0.3-0.6,0.5-1,0.7c-1.4,0.8-2.9,1.1-4.4,1.4C18.1,31.2,17.6,31.3,17,31.4z M15.8,25.5c0.1-0.1,0.1-0.1,0.1-0.2
			c2.3-3.7,4.6-7.3,6.8-11c1.2-1.9,1.6-3.9,1.2-6.1c-0.8-4.3-4.9-7.1-9.3-6.5C9.4,2.5,6.2,8.5,8.7,13.4c0.8,1.7,1.8,3.2,2.8,4.8
			C12.9,20.6,14.4,23,15.8,25.5z M16.1,30.3c1.9,0,3.9-0.2,5.8-1c0.8-0.3,1.5-0.7,2-1.4c0.4-0.6,0.4-1.1,0-1.6
			c-0.3-0.4-0.7-0.7-1.2-1c-1.4-0.8-2.9-1.1-4.4-1.3c-0.2,0-0.3,0.1-0.4,0.2c-0.5,0.8-1,1.6-1.5,2.4c-0.4,0.6-0.8,0.6-1.1,0
			c-0.5-0.8-0.9-1.6-1.4-2.4c-0.1-0.1-0.2-0.2-0.3-0.2c-0.9,0.2-1.7,0.3-2.6,0.6c-1,0.3-1.9,0.7-2.6,1.4c-0.7,0.7-0.7,1.4,0,2.1
			c0.5,0.6,1.2,0.9,1.9,1.2C12.1,30.1,14,30.3,16.1,30.3z"/>
		<path d="M16,13.2c-1.9,0-3.3-1.5-3.3-3.4c0-1.9,1.5-3.3,3.3-3.3c1.9,0,3.3,1.5,3.3,3.4C19.3,11.7,17.8,13.2,16,13.2z M16,12.2
			c1.3,0,2.3-1,2.3-2.3c0-1.3-1-2.3-2.3-2.3c-1.3,0-2.3,1-2.3,2.3C13.7,11.1,14.7,12.1,16,12.2z"/>
	</g>
</g>
</svg>
