<?xml version="1.0" encoding="utf-8"?>
<!-- Generator: Adobe Illustrator 25.2.3, SVG Export Plug-In . SVG Version: 6.00 Build 0)  -->
<svg version="1.1" id="AttachFile" xmlns="http://www.w3.org/2000/svg" xmlns:xlink="http://www.w3.org/1999/xlink" x="0px" y="0px"
	 viewBox="0 0 32 32" style="enable-background:new 0 0 32 32;" xml:space="preserve">
<g id="_x38_7XTNy.tif">
	<g>
		<path d="M27.4,30.7c-6.4,0-12.8,0-19.2,0c-1-0.6-1.3-1.4-1.3-2.6c0-3.9,0-7.8,0-11.6c0-0.3-0.1-0.7-0.3-0.8
			c-1.7-1.1-2.9-2.5-3.3-4.5c0-0.2,0-0.4,0-0.7c0.2-1.4,1.1-2.3,2-3.2c1.5-1.4,2.9-3,4.4-4.4c0.6-0.6,1.3-1,2-1.5c0.5,0,1,0,1.5,0
			c1.6,0.7,2.8,1.8,3.3,3.6c0.3,0,0.6,0,0.9,0c2.9,0,5.8,0,8.6,0c1.3,0,2.2,0.4,2.6,1.7c0,7.5,0,15,0,22.5
			C28.3,29.6,27.8,30.1,27.4,30.7z M15.6,10.7c0.1,0.1,0.1,0.2,0.2,0.3c2.4,0,4.8,0,7.2,0c0.5,0,1,0.1,1,0.7c0,0.6-0.5,0.6-1,0.6
			c-2.2,0-4.5,0-6.7,0c-0.5,0-0.9-0.3-1.5-0.5c-0.7,0.7-1.6,1.6-2.5,2.5c-1.1,1.1-2.2,2.1-3.9,1.8c0,0.2-0.1,0.3-0.1,0.4
			c0,4,0,8,0,12c0,0.7,0.4,0.9,1,0.9c5.7,0,11.4,0,17.1,0c0.9,0,1.1-0.1,1.1-1.1c0-7,0-14,0-21c0-1-0.1-1.1-1.1-1.1
			c-2.8,0-5.5,0-8.3,0c-0.9,0-1.4,0.2-2,1c-1.8,2.1-3.8,4-5.8,5.9c-0.9,0.8-2.2,0.5-3.2-0.5c-1-1-1.2-2.3-0.4-3.2
			c1.5-1.6,3.2-3.2,4.8-4.8c0.2-0.2,0.6-0.1,0.9-0.1c0,0.3,0,0.6,0,0.9c0,0.2-0.2,0.3-0.4,0.4c-1.3,1.3-2.7,2.6-4,4
			c-0.7,0.7-0.7,1.2,0,1.9c0.7,0.7,1.2,0.7,1.9,0c1.6-1.6,3.2-3.2,4.8-4.8c0.9-0.9,1-1.7,0.2-2.7c-0.4-0.5-1-1-1.6-1.4
			c-0.7-0.4-1.4-0.3-1.9,0.3c-2,2-4,4-6,6.1c-0.6,0.6-0.8,1.4-0.5,2.3c0.3,1.1,1,2,1.9,2.7c1.5,1.2,2.9,1.1,4.3-0.3
			c1.6-1.6,3.2-3.2,4.8-4.8c0.3-0.3,0.7-0.5,1-0.1c0.1,0.2,0.1,0.7-0.1,1C16.3,10.2,15.9,10.4,15.6,10.7z"/>
		<path d="M17.7,16.4c-1.7,0-3.4,0-5.1,0c-0.5,0-0.9,0-1-0.6c0-0.6,0.5-0.7,0.9-0.7c3.5,0,6.9,0,10.4,0c0.5,0,0.9,0.1,0.9,0.7
			c0,0.5-0.4,0.6-0.9,0.6C21.3,16.4,19.5,16.4,17.7,16.4z"/>
		<path d="M17.7,20.5c-1.7,0-3.4,0-5,0c-0.5,0-1,0-1-0.6c0-0.6,0.5-0.6,1-0.6c3.4,0,6.8,0,10.2,0c0.5,0,1,0,1,0.6
			c0,0.6-0.5,0.7-1,0.7C21.2,20.5,19.4,20.5,17.7,20.5z"/>
		<path d="M17.8,23.3c1.7,0,3.4,0,5.1,0c0.5,0,1,0,1,0.7c0,0.6-0.5,0.6-1,0.6c-3.4,0-6.9,0-10.3,0c-0.5,0-0.9-0.1-1-0.6
			c0-0.6,0.5-0.6,0.9-0.6C14.3,23.3,16.1,23.3,17.8,23.3z"/>
	</g>
</g>
</svg>
