<?xml version="1.0" encoding="utf-8"?>
<!-- Generator: Adobe Illustrator 25.2.3, SVG Export Plug-In . SVG Version: 6.00 Build 0)  -->
<svg version="1.1" id="AttachFile" xmlns="http://www.w3.org/2000/svg" xmlns:xlink="http://www.w3.org/1999/xlink" x="0px" y="0px"
	 viewBox="0 0 32 32" style="enable-background:new 0 0 32 32;" xml:space="preserve">
<path d="M24.9,0.6c1.1,0.7,2.4,1.2,3.2,2.1c1.9,2,1.9,5.1,0.1,7.2c-1.1,1.3-2.3,2.4-3.4,3.5c-3.3,3.3-6.6,6.6-9.9,9.9
	c-1.1,1.1-2.5,1.6-4.1,1.1c-1.5-0.4-2.3-1.5-2.6-3c-0.3-1.3,0.1-2.4,1-3.3c2-2.1,4.1-4.2,6.2-6.2c0.6-0.6,1.3-0.9,2-0.1
	c0.7,0.7,0.4,1.4-0.2,2c-1.8,1.8-3.7,3.7-5.5,5.5c-0.3,0.3-0.7,0.6-0.7,0.9c-0.1,0.5-0.1,1.1,0.2,1.4c0.3,0.3,0.9,0.4,1.4,0.3
	c0.4-0.1,0.7-0.5,1-0.8c4-4,8-8,12-12c0.5-0.5,1-1.2,1.3-1.8c0.5-1.4-0.1-2.9-1.3-3.7c-1.2-0.7-2.8-0.6-3.9,0.4
	c-5.3,5.3-10.7,10.6-15.9,16c-2.1,2.1-1.9,5.3,0.1,7.2c2.1,2,5.2,1.9,7.3-0.2c4.9-4.8,9.7-9.7,14.5-14.6c0.7-0.7,1.3-1.7,2.5-0.8
	c0.8,0.6,0.5,1.3-0.7,2.6c-4.3,4.3-8.7,8.7-13,13.1c-1.7,1.7-3.4,3.3-5.9,3.9c-0.8,0.2-1.6,0.2-2.4,0c-1.7-0.5-3.3-1.2-4.5-2.5
	C0.7,25.5,0.9,21.2,4.1,18c4.6-4.6,9.2-9.2,13.8-13.9c1.4-1.4,2.7-2.8,4.6-3.5C23.3,0.4,24.1,0.2,24.9,0.6z"/>
</svg>
