<?xml version="1.0" encoding="utf-8"?>
<!-- Generator: Adobe Illustrator 24.3.0, SVG Export Plug-In . SVG Version: 6.00 Build 0)  -->
<svg version="1.1" id="ChatExclamation" xmlns="http://www.w3.org/2000/svg" xmlns:xlink="http://www.w3.org/1999/xlink" x="0px"
	 y="0px" viewBox="0 0 32 28.1" style="enable-background:new 0 0 32 28.1;" xml:space="preserve">
<path d="M9.8,25.5c-1.7,1.6-12,5.1-9.2-0.2c0.9-1.2,1.7-2.6,2.5-3.8c0.2-0.3,0.2-0.6-0.1-0.9C-4.9,11.9,4.3,0.2,14.4,0
	c22-1.3,24.3,25.1,1.7,26.1L9.8,25.5z M5.1,24.4c5.9-2.8,2.5-3,9-1.5c16.2,1.9,21.6-17,3.9-19.8C10.6,1.7-0.2,8.3,3.9,16.5
	C7,21.4,7.6,18.6,5.1,24.4z"/>
<path d="M16.1,6c0.5,0,0.9,0,1.4,0c0.6,0,0.9,0.5,0.8,1.2c-0.3,1.9-0.6,3.8-0.9,5.8c-0.1,0.8-0.4,1-1,1c-1.6,0-1.6,0-1.8-1.9
	c-0.2-1.5-0.5-3.1-0.7-4.6C13.7,6.4,14,6,14.9,6C15.3,6,15.7,6,16.1,6z"/>
<path d="M14.1,18c0-1.1,0.8-2,2-2c1.1,0,2.1,0.9,2,2c0,1.1-0.9,2-2,2C14.9,20.1,14.1,19.2,14.1,18z"/>
</svg>
