<?xml version="1.0" encoding="utf-8"?>
<!-- Generator: Adobe Illustrator 24.1.0, SVG Export Plug-In . SVG Version: 6.00 Build 0)  -->
<svg version="1.1" id="PaperAirplane" xmlns="http://www.w3.org/2000/svg" xmlns:xlink="http://www.w3.org/1999/xlink" x="0px"
	 y="0px" viewBox="0 0 32 32" style="enable-background:new 0 0 32 32;" xml:space="preserve">
<path id="Icon_ionic-ios-send" d="M31,0L0.4,13.4c-0.3,0.2-0.5,0.6-0.3,1c0.1,0.1,0.2,0.3,0.3,0.3l8.3,4.7c0.5,0.3,1.1,0.2,1.5-0.1
	L26.5,5.1C26.7,5,26.9,4.8,27,4.9C27.1,5,27,5.3,26.9,5.4L12.7,21.3c-0.4,0.4-0.4,1.1-0.1,1.6l5.4,8.7c0.2,0.3,0.6,0.5,0.9,0.3
	c0.1-0.1,0.3-0.2,0.3-0.3L31.9,1c0.2-0.4,0-0.8-0.4-0.9C31.4-0.1,31.2-0.1,31,0z"/>
</svg>
