<?xml version="1.0" encoding="utf-8"?>
<!-- Generator: Adobe Illustrator 25.2.3, SVG Export Plug-In . SVG Version: 6.00 Build 0)  -->
<svg version="1.1" id="Image" xmlns="http://www.w3.org/2000/svg" xmlns:xlink="http://www.w3.org/1999/xlink" x="0px" y="0px"
	 viewBox="0 0 32 27.7" style="enable-background:new 0 0 32 27.7;" xml:space="preserve">
<g id="jXeSiH.tif">
	<g>
		<path d="M26.3,1.1c0.1,0,0.2,0,0.3,0c0,0,0,0,0,0c0.5,0.1,0.8,0.4,0.9,0.9c0.2,0.9,0.3,1.9,0.5,2.8c0,0.1,0,0.1,0.2,0.2
			c0.9,0.1,1.9,0.3,2.8,0.4c0.6,0.1,1.1,0.7,1,1.3c0,0.3-0.1,0.5-0.1,0.8c-0.2,1.1-0.3,2.2-0.5,3.4c-0.2,1.1-0.3,2.2-0.5,3.4
			c-0.1,1-0.3,2-0.4,3c0,0.3-0.1,0.5-0.1,0.8c0.1,0.8,0.3,1.5,0.4,2.3c0,0.3,0.1,0.5,0.1,0.8c-0.1,0.5-0.4,0.8-0.9,0.9
			c-0.1,0-0.2,0-0.2,0.2c-0.1,0.7-0.2,1.4-0.3,2.1c-0.1,0.6-0.6,1-1.2,1c-0.6-0.1-1.2-0.2-1.8-0.3c-1.1-0.2-2.1-0.3-3.2-0.5
			c-1.1-0.2-2.2-0.3-3.3-0.5c-0.2,0-0.4-0.1-0.6-0.1c-0.8,0.1-1.5,0.3-2.3,0.4c-1.3,0.2-2.6,0.5-3.9,0.7c-1.4,0.3-2.9,0.5-4.3,0.8
			c-1.1,0.2-2.1,0.4-3.2,0.6c-0.4,0.1-0.7,0.2-1.1,0.2c-0.1,0-0.2,0-0.3,0c-0.5-0.1-0.8-0.5-0.9-1c-0.4-2.1-0.8-4.3-1.2-6.4
			C1.8,17.1,1.4,15,1,12.9C0.7,11,0.4,9.1,0,7.2C-0.1,6.6,0.3,6,0.9,5.9c0.5-0.1,0.9-0.2,1.4-0.3C3.3,5.4,4.4,5.2,5.4,5
			c0.1,0,0.1-0.1,0.1-0.1c0.1-0.6,0.2-1.3,0.3-1.9c0.1-0.7,0.6-1.1,1.3-1.1c0.7,0.1,1.4,0.2,2,0.3c0.9,0.1,1.9,0.3,2.8,0.4
			c0.9,0.1,1.9,0.3,2.8,0.4c0.4,0.1,0.7,0.1,1.1,0C16.2,3,16.4,3,16.7,2.9c1.5-0.3,2.9-0.6,4.4-0.8c1.4-0.3,2.7-0.5,4.1-0.8
			C25.6,1.2,25.9,1.1,26.3,1.1z M5.7,19.5c7.3,1.1,14.5,2.1,21.7,3.2c0.7-5.1,1.4-10.2,2.2-15.3C22.4,6.4,15.2,5.3,7.9,4.3
			C7.2,9.4,6.5,14.5,5.7,19.5z M3.9,16.4C3.9,16.4,3.9,16.4,3.9,16.4c0.5-3,0.9-6,1.3-9c-1,0.2-1.9,0.4-2.8,0.5
			C2.9,10.7,3.4,13.6,3.9,16.4z M12.5,22.9C12.5,22.9,12.5,22.8,12.5,22.9c-2.5-0.4-5.1-0.8-7.6-1.2c0.2,0.9,0.3,1.7,0.5,2.5
			C7.7,23.8,10.1,23.3,12.5,22.9z M22.4,4.1C22.4,4.1,22.4,4.1,22.4,4.1c1.1,0.2,2.2,0.4,3.4,0.5c-0.1-0.4-0.1-0.8-0.2-1.1
			C24.5,3.7,23.5,3.9,22.4,4.1z"/>
		<path d="M20.4,10.7c0.8,1.7,1.7,3.4,2.5,5.1c0.7-0.7,1.3-1.4,2-2.1c0.4,2.5,0.9,4.9,1.3,7.4c-6.3-0.9-12.5-1.8-18.8-2.8
			c0.2-0.3,0.3-0.6,0.5-0.9c0.6-0.9,1.5-1.4,2.6-1.6c1.3-0.2,2.6-0.1,3.9,0.3c0.3,0.1,0.7,0.2,1,0.3c0.1,0,0.1,0,0.2,0
			c1.1-1.3,2.2-2.6,3.3-3.9C19.4,11.9,19.8,11.3,20.4,10.7C20.3,10.8,20.3,10.8,20.4,10.7z"/>
		<path d="M14.9,10.1c0,1.2-0.9,2.2-2.1,2.2c-1.2,0-2.1-1-2.1-2.2c0-1.2,0.9-2.2,2.1-2.2C14,7.9,14.9,8.8,14.9,10.1z"/>
	</g>
</g>
</svg>
