<?xml version="1.0" encoding="utf-8"?>
<!-- Generator: Adobe Illustrator 24.2.1, SVG Export Plug-In . SVG Version: 6.00 Build 0)  -->
<svg version="1.1" id="LogoText" xmlns="http://www.w3.org/2000/svg" xmlns:xlink="http://www.w3.org/1999/xlink" x="0px" y="0px"
	 viewBox="0 0 144.3 32" style="enable-background:new 0 0 144.3 32;" xml:space="preserve">
<style type="text/css">
	.st0{display:none;}
</style>
<g>
	<path class="st0" d="M3.6,1c0-0.4,0.4-0.8,0.8-0.8H7c0.4,0,0.8,0.4,0.8,0.8v29.3c0,0.4-0.4,0.8-0.8,0.8H4.4c-0.4,0-0.8-0.4-0.8-0.8
		V1z"/>
	<path d="M13.3,14.3c0-0.4,0.4-0.8,0.8-0.8h2.5c0.4,0,0.8,0.4,0.8,0.8v9.1c0,2.9,1.4,4.4,3.6,4.4c2.6,0,4.2-2.1,4.4-2.9V14.3
		c0-0.7,0.4-0.8,1-0.8h2.3c0.4,0,0.8,0.4,0.8,0.8v16c0,0.4-0.4,0.8-0.8,0.8h-1.2c-0.4,0-0.7-0.3-0.8-0.7l-0.4-1.3
		c-0.4,0.4-2.3,2.4-5.8,2.4c-5.3,0-7.2-3.8-7.2-8.4V14.3z"/>
	<path d="M35.4,14.3c0-0.4,0.4-0.8,0.8-0.8h1.2c0.4,0,0.6,0.2,0.8,0.5l0.5,1.5c0.4-0.4,2.4-2.5,5.8-2.5c2.6,0,4.4,1,5.7,2.8
		c0.5-0.5,3.1-2.8,6.4-2.8c5.4,0,7.3,3.8,7.3,8.4v8.9c0,0.4-0.4,0.8-0.8,0.8h-2.5c-0.5,0-0.8-0.4-0.8-0.8v-9.1
		c0-2.8-1.3-4.4-3.7-4.4c-2.7,0-4.2,1.9-4.6,2.2c0.1,0.4,0.1,1.2,0.1,2.1v9.2c0,0.4-0.4,0.8-0.8,0.8h-2.3c-0.5,0-0.8-0.4-0.8-0.8
		v-9.1c0-2.8-1.3-4.4-3.8-4.4c-2.7,0-4.2,2.1-4.4,2.7v10.8c0,0.4-0.4,0.8-0.8,0.8h-2.5c-0.4,0-0.8-0.4-0.8-0.8V14.3z"/>
	<path d="M75.3,20c1.9,0,3.5,0.5,3.5,0.5c0-2.8-0.5-3.9-2.7-3.9c-2,0-4,0.5-5,0.8c-0.5,0.1-0.8-0.2-1-0.7l-0.4-1.6
		c-0.1-0.6,0.2-0.9,0.6-1c0.3-0.1,2.8-1,6.1-1c5.7,0,6.2,3.5,6.2,7.9v9.4c0,0.4-0.4,0.8-0.8,0.8h-1.2c-0.4,0-0.6-0.2-0.8-0.6
		l-0.4-1.2c-1,0.9-2.7,2.3-5.4,2.3c-3.3,0-5.7-2.3-5.7-5.9C68.2,22.5,70.8,20,75.3,20z M74.8,28.5c1.8,0,3.5-1.3,4-2.2v-2.8
		c-0.3-0.2-1.5-0.7-3.1-0.7c-2.1,0-3.6,1.1-3.6,2.9C72.1,27.2,73.2,28.5,74.8,28.5z"/>
	<path d="M87.2,28.9l0.9-1.7c0.2-0.4,0.7-0.5,1.1-0.2c0,0,1.9,1.2,4.1,1.2c1.3,0,2.2-0.5,2.2-1.5c0-1.2-1-1.8-3.4-2.9
		c-2.7-1.2-5-2.9-5-5.8c0-2.2,1.8-4.9,6.1-4.9c2.5,0,4.3,0.8,5.2,1.4c0.4,0.3,0.6,0.8,0.4,1.3l-0.8,1.5c-0.2,0.4-0.8,0.5-1.2,0.4
		c0,0-1.9-0.9-3.6-0.9c-1.5,0-2,0.7-2,1.3c0,1.2,1.1,1.6,2.8,2.4c3.2,1.4,5.9,2.8,5.9,6.1c0,2.7-2.6,5.2-6.6,5.2
		c-3,0-4.9-1.1-5.8-1.8C87.2,29.6,87,29.2,87.2,28.9z"/>
	<path d="M105.2,17.1h-1.9c-0.5,0-0.8-0.4-0.8-0.8v-2c0-0.5,0.4-0.8,0.8-0.8h1.9V8.6c0-0.4,0.4-0.8,0.8-0.8l2.5,0
		c0.4,0,0.8,0.4,0.8,0.8v5h4.5c0.5,0,0.8,0.4,0.8,0.8v2c0,0.4-0.4,0.8-0.8,0.8h-4.5v8.8c0,1.5,0.6,1.8,1.4,1.8
		c0.9,0,2.2-0.5,2.7-0.8c0.6-0.3,0.8,0,1,0.4l0.8,1.9c0.2,0.5,0,0.8-0.4,1.1c-0.4,0.3-3.1,1.3-5.2,1.3c-3.5,0-4.5-2.1-4.5-5.3V17.1z
		"/>
	<path d="M118.9,8.2c0-1.5,1.1-2.6,2.5-2.6c1.5,0,2.6,1.2,2.6,2.6c0,1.4-1.2,2.6-2.6,2.6C120,10.8,118.9,9.6,118.9,8.2z M119.4,14.3
		c0-0.4,0.4-0.8,0.8-0.8h2.5c0.4,0,0.8,0.4,0.8,0.8v16c0,0.4-0.4,0.8-0.8,0.8h-2.5c-0.4,0-0.8-0.4-0.8-0.8V14.3z"/>
	<path d="M137.3,13c2.7,0,4.8,1.1,6.4,3.1c0.3,0.4,0.2,0.9-0.2,1.2l-1.5,1.3c-0.5,0.5-0.8,0.1-1.2-0.2c-0.8-0.9-2.1-1.7-3.5-1.7
		c-2.9,0-5.1,2.4-5.1,5.4c0,3.1,2.2,5.5,5.1,5.5c2.3,0,3.2-1.2,4.1-2c0.4-0.4,0.8-0.4,1.2-0.1l1.2,1c0.4,0.4,0.6,0.8,0.3,1.2
		c-1.4,2.3-3.8,3.7-6.9,3.7c-5,0-9.3-3.9-9.3-9.3C128,17.1,132.4,13,137.3,13z"/>
	<path d="M8.7,30.8c-0.4,0.3-2,1-4.1,1c-3.5,0-4.6-2.1-4.6-5.3c0-0.7,0-1.6,0-1.9V2c0-0.1,0.1-0.2,0.1-0.3C0.2,1,0.6,0.6,1.1,0.6
		c0.6,0,1.2,0,1.9,0c0.7,0,1.1,0.6,1.1,1.5c0,0.3,0,0.5,0,0.8c0,6.8,0,13.5,0,20.3c0,0.7,0,1.4,0.1,2.1c0,0.2,0,0.5,0.1,0.8
		c0,0,0,0,0,0c0,1.5,0.5,1.8,1.4,1.8c0,0,0.1,0,0.1,0c0.9,0,1-0.2,1.5-0.4c0.6-0.3,0.8,0,1,0.4l0.8,1.9C9.3,30.3,9.1,30.6,8.7,30.8z
		"/>
</g>
</svg>
