<?xml version="1.0" encoding="utf-8"?>
<!-- Generator: Adobe Illustrator 24.1.0, SVG Export Plug-In . SVG Version: 6.00 Build 0)  -->
<svg version="1.1" id="Compass" xmlns="http://www.w3.org/2000/svg" xmlns:xlink="http://www.w3.org/1999/xlink" x="0px" y="0px"
	 viewBox="0 0 32 32" style="enable-background:new 0 0 32 32;" xml:space="preserve">
<path id="Icon_awesome-compass" d="M17.5,14.5c-0.4-0.4-0.9-0.6-1.5-0.6s-1.1,0.2-1.5,0.6c-0.8,0.8-0.8,2.1,0,2.9s2.1,0.8,2.9,0
	S18.3,15.3,17.5,14.5z M17.5,14.5c-0.4-0.4-0.9-0.6-1.5-0.6s-1.1,0.2-1.5,0.6c-0.8,0.8-0.8,2.1,0,2.9s2.1,0.8,2.9,0
	S18.3,15.3,17.5,14.5z M17.5,14.5c-0.4-0.4-0.9-0.6-1.5-0.6s-1.1,0.2-1.5,0.6c-0.8,0.8-0.8,2.1,0,2.9s2.1,0.8,2.9,0
	S18.3,15.3,17.5,14.5z M27.3,4.7C24.4,1.8,20.4,0,16,0C7.2,0,0,7.2,0,16s7.2,16,16,16s16-7.2,16-16C32,11.6,30.2,7.6,27.3,4.7z
	 M24.1,9.5l-4.3,9.3c-0.2,0.5-0.6,0.8-1,1l-9.3,4.3c-0.6,0.3-1.4,0-1.7-0.6c-0.2-0.3-0.2-0.7,0-1.1l4.3-9.3c0.2-0.5,0.6-0.8,1-1
	l9.3-4.3c0.6-0.3,1.4,0,1.7,0.6C24.3,8.8,24.3,9.2,24.1,9.5z M16,13.9c-0.5,0-1.1,0.2-1.5,0.6c-0.8,0.8-0.8,2.1,0,2.9s2.1,0.8,2.9,0
	s0.8-2.1,0-2.9C17.1,14.1,16.5,13.9,16,13.9z M17.5,14.5c-0.4-0.4-0.9-0.6-1.5-0.6s-1.1,0.2-1.5,0.6c-0.8,0.8-0.8,2.1,0,2.9
	s2.1,0.8,2.9,0S18.3,15.3,17.5,14.5z"/>
</svg>
