<?xml version="1.0" encoding="utf-8"?>
<!-- Generator: Adobe Illustrator 24.1.0, SVG Export Plug-In . SVG Version: 6.00 Build 0)  -->
<svg version="1.1" id="Home" xmlns="http://www.w3.org/2000/svg" xmlns:xlink="http://www.w3.org/1999/xlink" x="0px" y="0px"
	 viewBox="0 0 32 24.9" style="enable-background:new 0 0 32 24.9;" xml:space="preserve">
<path id="Icon_awesome-home" d="M15.6,6.5L5.3,14.9V24c0,0.5,0.4,0.9,0.9,0.9l6.2,0c0.5,0,0.9-0.4,0.9-0.9v-5.3
	c0-0.5,0.4-0.9,0.9-0.9c0,0,0,0,0,0h3.6c0.5,0,0.9,0.4,0.9,0.9c0,0,0,0,0,0V24c0,0.5,0.4,0.9,0.9,0.9c0,0,0,0,0,0l6.2,0
	c0.5,0,0.9-0.4,0.9-0.9v-9.1L16.4,6.5C16.2,6.3,15.8,6.3,15.6,6.5z M31.8,12.2l-4.6-3.8V0.7c0-0.4-0.3-0.7-0.7-0.7l0,0h-3.1
	c-0.4,0-0.7,0.3-0.7,0.7v4l-5-4.1c-1-0.8-2.4-0.8-3.4,0L0.2,12.2c-0.3,0.2-0.3,0.7-0.1,0.9c0,0,0,0,0,0l1.4,1.7
	c0.2,0.3,0.7,0.3,0.9,0.1c0,0,0,0,0,0L15.6,4.2c0.2-0.2,0.6-0.2,0.8,0l13.1,10.8c0.3,0.2,0.7,0.2,0.9-0.1c0,0,0,0,0,0l1.4-1.7
	C32.1,12.8,32,12.4,31.8,12.2C31.8,12.2,31.8,12.2,31.8,12.2L31.8,12.2z"/>
</svg>
