<?xml version="1.0" encoding="utf-8"?>
<!-- Generator: Adobe Illustrator 24.1.2, SVG Export Plug-In . SVG Version: 6.00 Build 0)  -->
<svg version="1.1" id="PostPlus" xmlns="http://www.w3.org/2000/svg" xmlns:xlink="http://www.w3.org/1999/xlink" x="0px" y="0px"
	 viewBox="0 0 32 31.5" style="enable-background:new 0 0 32 31.5;" xml:space="preserve">
<style type="text/css">
	.st0{fill:#010101;}
</style>
<path d="M29.3,19.2v-1.3c0-2.2-1.8-4-4-4h-1.1c-2.2,0-4,1.8-4,4v1.7h-1.7c-2.2,0-4,1.8-4,4v1c-2.4-0.2-4.8-0.8-6.9-1.9
	c-2.1,1.2-4.4,2-6.8,2c-0.3,0-0.4-0.1-0.5-0.4c-0.1-0.3,0-0.5,0.1-0.7c1.1-1.2,2.1-2.6,2.8-4.2c-1.8-1.9-2.9-4.4-2.9-7.1
	C0.1,5.5,7.3,0,16.1,0C24.8,0,32,5.5,32,12.3C32,14.9,31,17.2,29.3,19.2z"/>
<path id="Icon_awesome-plus_3_" class="st0" d="M31,22.6h-4.7v-4.7c0-0.6-0.5-1-1-1h-1c-0.6,0-1,0.5-1,1l0,0v4.7h-4.7
	c-0.6,0-1,0.5-1,1l0,0v1c0,0.6,0.5,1,1,1h4.7v4.7c0,0.6,0.5,1,1,1l0,0h1c0.6,0,1-0.5,1-1v-4.7H31c0.6,0,1-0.5,1-1v-1
	C32,23,31.5,22.6,31,22.6z"/>
</svg>
