<?xml version="1.0" encoding="utf-8"?>
<!-- Generator: Adobe Illustrator 25.2.1, SVG Export Plug-In . SVG Version: 6.00 Build 0)  -->
<svg version="1.1" id="Pin" xmlns="http://www.w3.org/2000/svg" xmlns:xlink="http://www.w3.org/1999/xlink" x="0px" y="0px"
	 viewBox="0 0 21.7 32" style="enable-background:new 0 0 21.7 32;" xml:space="preserve">
<path id="Icon_metro-pin" d="M14.9,18.5L4.3,12.3c-1.3-0.8-3-0.4-3.8,0.9c-0.8,1.3-0.4,3,0.9,3.8c0,0,0,0,0.1,0l10.7,6.2
	c1.3,0.8,3,0.3,3.7-1C16.7,20.9,16.2,19.2,14.9,18.5L14.9,18.5z M6.1,11.8l8.3,4.8l2.8-7.9l-5.7-3.3L6.1,11.8L6.1,11.8z M0,32
	l7.9-9.7l-3.6-2.1L0,32L0,32z M20.7,4.4l-7.1-4.1c-1-0.6-2.2-0.2-2.8,0.8c-0.6,1-0.2,2.2,0.8,2.8L18.6,8c1,0.6,2.2,0.2,2.8-0.8
	S21.7,5,20.7,4.4L20.7,4.4z"/>
</svg>
