<?xml version="1.0" encoding="utf-8"?>
<!-- Generator: Adobe Illustrator 25.2.1, SVG Export Plug-In . SVG Version: 6.00 Build 0)  -->
<svg version="1.1" id="UserGear" xmlns="http://www.w3.org/2000/svg" xmlns:xlink="http://www.w3.org/1999/xlink" x="0px" y="0px"
	 viewBox="0 0 32 25.6" style="enable-background:new 0 0 32 25.6;" xml:space="preserve">
<path id="Icon_awesome-user-cog" d="M30.5,18.7c0.1-0.7,0.1-1.4,0-2.1l1.3-0.7c0.1-0.1,0.2-0.3,0.2-0.4c-0.3-1.1-0.9-2-1.7-2.9
	c-0.1-0.1-0.3-0.2-0.4-0.1l-1.3,0.7c-0.5-0.5-1.2-0.8-1.8-1.1v-1.5c0-0.2-0.1-0.3-0.3-0.4c-1.1-0.2-2.2-0.2-3.3,0
	c-0.2,0-0.3,0.2-0.3,0.4v1.5c-0.7,0.2-1.3,0.6-1.8,1.1l-1.3-0.7c-0.1-0.1-0.3-0.1-0.4,0.1c-0.8,0.8-1.3,1.8-1.7,2.9
	c0,0.2,0,0.3,0.2,0.4l1.3,0.7c-0.1,0.7-0.1,1.4,0,2.1l-1.3,0.7c-0.1,0.1-0.2,0.3-0.2,0.4c0.3,1.1,0.9,2,1.7,2.9
	c0.1,0.1,0.3,0.2,0.4,0.1L21,22c0.5,0.5,1.2,0.8,1.8,1.1v1.5c0,0.2,0.1,0.3,0.3,0.4c1.1,0.2,2.2,0.2,3.3,0c0.2,0,0.3-0.2,0.3-0.4
	v-1.5c0.7-0.2,1.3-0.6,1.8-1.1l1.3,0.7c0.1,0.1,0.3,0.1,0.4-0.1c0.8-0.8,1.3-1.8,1.7-2.9c0-0.2,0-0.3-0.2-0.4L30.5,18.7z M24.8,20
	c-1.3,0-2.4-1.1-2.4-2.4c0-1.3,1.1-2.4,2.4-2.4s2.4,1.1,2.4,2.4c0,0,0,0,0,0C27.2,18.9,26.1,20,24.8,20L24.8,20z M11.2,12.8
	c3.5,0,6.4-2.9,6.4-6.4c0-3.5-2.9-6.4-6.4-6.4S4.8,2.9,4.8,6.4c0,0,0,0,0,0C4.8,9.9,7.7,12.8,11.2,12.8z M21.3,24.1
	c-0.1-0.1-0.2-0.1-0.3-0.2l-0.4,0.2c-0.8,0.5-1.8,0.3-2.4-0.4c-0.9-1-1.6-2.2-2-3.5c-0.3-0.9,0.1-1.8,0.9-2.3l0.4-0.2
	c0-0.1,0-0.3,0-0.4L17,17.2c-0.8-0.5-1.2-1.4-0.9-2.3c0-0.1,0.1-0.3,0.2-0.4c-0.2,0-0.4-0.1-0.6-0.1h-0.8c-2.3,1.1-5,1.1-7.3,0H6.7
	c-3.7,0-6.7,3-6.7,6.7v2.1c0,1.3,1.1,2.4,2.4,2.4H20c0.5,0,1-0.1,1.4-0.4c-0.1-0.2-0.1-0.4-0.1-0.6V24.1z"/>
</svg>
