<?xml version="1.0" encoding="utf-8"?>
<!-- Generator: Adobe Illustrator 24.1.0, SVG Export Plug-In . SVG Version: 6.00 Build 0)  -->
<svg version="1.1" id="Users" xmlns="http://www.w3.org/2000/svg" xmlns:xlink="http://www.w3.org/1999/xlink" x="0px" y="0px"
	 viewBox="0 0 32 22.4" style="enable-background:new 0 0 32 22.4;" xml:space="preserve">
<path id="Icon_awesome-users" d="M4.8,9.6C6.6,9.6,8,8.2,8,6.4S6.6,3.2,4.8,3.2S1.6,4.6,1.6,6.4C1.6,8.2,3,9.6,4.8,9.6z M27.2,9.6
	c1.8,0,3.2-1.4,3.2-3.2c0-1.8-1.4-3.2-3.2-3.2c-1.8,0-3.2,1.4-3.2,3.2v0C24,8.2,25.4,9.6,27.2,9.6z M28.8,11.2h-3.2
	c-0.8,0-1.7,0.3-2.3,0.9c2.1,1.1,3.4,3.2,3.8,5.5h3.3c0.9,0,1.6-0.7,1.6-1.6c0,0,0,0,0,0v-1.6C32,12.6,30.6,11.2,28.8,11.2z
	 M16,11.2c3.1,0,5.6-2.5,5.6-5.6S19.1,0,16,0s-5.6,2.5-5.6,5.6S12.9,11.2,16,11.2z M19.8,12.8h-0.4c-2.2,1.1-4.7,1.1-6.8,0h-0.4
	c-3.2,0-5.8,2.6-5.8,5.8V20c0,1.3,1.1,2.4,2.4,2.4h14.4c1.3,0,2.4-1.1,2.4-2.4v-1.4C25.6,15.4,23,12.8,19.8,12.8z M8.7,12.1
	c-0.6-0.6-1.4-0.9-2.3-0.9H3.2c-1.8,0-3.2,1.4-3.2,3.2V16c0,0.9,0.7,1.6,1.6,1.6c0,0,0,0,0,0h3.3C5.2,15.3,6.6,13.2,8.7,12.1z"/>
</svg>
