<?xml version="1.0" encoding="utf-8"?>
<!-- Generator: Adobe Illustrator 25.2.1, SVG Export Plug-In . SVG Version: 6.00 Build 0)  -->
<svg version="1.1" id="Boards" xmlns="http://www.w3.org/2000/svg" xmlns:xlink="http://www.w3.org/1999/xlink" x="0px" y="0px"
	 viewBox="0 0 35 34.4" style="enable-background:new 0 0 35 34.4;" xml:space="preserve">
<path d="M2.8,19h11.6c0.7,0,1.3-0.6,1.3-1.3V2.5c0-0.7-0.6-1.3-1.3-1.3H2.8c-0.7,0-1.3,0.6-1.3,1.3v15.1C1.5,18.4,2.1,19,2.8,19z
	 M2.8,33.2h11.6c0.7,0,1.3-0.6,1.3-1.3v-8c0-0.7-0.6-1.3-1.3-1.3H2.8c-0.7,0-1.3,0.6-1.3,1.3v8C1.5,32.6,2.1,33.2,2.8,33.2z
	 M20.6,33.2h11.6c0.7,0,1.3-0.6,1.3-1.3V16.7c0-0.7-0.6-1.3-1.3-1.3H20.6c-0.7,0-1.3,0.6-1.3,1.3v15.1
	C19.3,32.6,19.9,33.2,20.6,33.2z M19.3,2.5v8c0,0.7,0.6,1.3,1.3,1.3h11.6c0.7,0,1.3-0.6,1.3-1.3v-8c0-0.7-0.6-1.3-1.3-1.3H20.6
	C19.9,1.2,19.3,1.8,19.3,2.5z"/>
</svg>
