<?xml version="1.0" encoding="utf-8"?>
<!-- Generator: Adobe Illustrator 25.2.1, SVG Export Plug-In . SVG Version: 6.00 Build 0)  -->
<svg version="1.1" id="Boards" xmlns="http://www.w3.org/2000/svg" xmlns:xlink="http://www.w3.org/1999/xlink" x="0px" y="0px"
	 viewBox="0 0 32 32" style="enable-background:new 0 0 32 32;" xml:space="preserve">
<path d="M1.3,17.8h11.6c0.7,0,1.3-0.6,1.3-1.3V1.3c0-0.7-0.6-1.3-1.3-1.3H1.3C0.6,0,0,0.6,0,1.3v15.1C0,17.2,0.6,17.8,1.3,17.8z
	 M1.3,32h11.6c0.7,0,1.3-0.6,1.3-1.3v-8c0-0.7-0.6-1.3-1.3-1.3H1.3c-0.7,0-1.3,0.6-1.3,1.3v8C0,31.4,0.6,32,1.3,32z M19.1,32h11.6
	c0.7,0,1.3-0.6,1.3-1.3V15.5c0-0.7-0.6-1.3-1.3-1.3H19.1c-0.7,0-1.3,0.6-1.3,1.3l0,15.1C17.8,31.4,18.4,32,19.1,32z M17.8,1.3v8
	c0,0.7,0.6,1.3,1.3,1.3h11.6c0.7,0,1.3-0.6,1.3-1.3v-8C32,0.6,31.4,0,30.7,0L19.1,0C18.4,0,17.8,0.6,17.8,1.3z"/>
</svg>
