<?xml version="1.0" encoding="utf-8"?>
<!-- Generator: Adobe Illustrator 25.2.3, SVG Export Plug-In . SVG Version: 6.00 Build 0)  -->
<svg version="1.1" id="Hamburger" xmlns="http://www.w3.org/2000/svg" xmlns:xlink="http://www.w3.org/1999/xlink" x="0px" y="0px"
	 viewBox="0 0 32 25.5" style="enable-background:new 0 0 32 25.5;" xml:space="preserve">
<g>
	<path d="M32,3.9c-0.1,0.3-0.2,0.6-0.3,0.9c-0.4,0.7-1.1,1.1-2,1.1c-9.1,0-18.3,0-27.4,0C1.2,5.9,0.2,5.1,0,4c0,0,0-0.1,0-0.1
		c0-0.2,0-0.4,0-0.6c0,0,0-0.1,0-0.1C0.2,2.5,0.5,2,1.1,1.6C1.4,1.5,1.7,1.4,2,1.3c9.4,0,18.7,0,28.1,0c0,0,0.1,0,0.1,0
		c0.7,0.1,1.2,0.5,1.6,1.1C31.8,2.7,31.9,3,32,3.3C32,3.5,32,3.7,32,3.9z"/>
	<path d="M32,13.1c-0.1,0.3-0.2,0.6-0.3,0.9c-0.4,0.7-1.1,1.1-2,1.1c-9.1,0-18.3,0-27.4,0c-1.1,0-2-0.8-2.3-1.9c0,0,0-0.1,0-0.1
		c0-0.2,0-0.4,0-0.6c0.1-0.3,0.2-0.6,0.4-0.9c0.4-0.7,1.1-1.1,1.9-1.1c9.2,0,18.3,0,27.5,0c1.1,0,2,0.8,2.2,1.9c0,0,0,0.1,0,0.1
		C32,12.6,32,12.8,32,13.1z"/>
	<path d="M0,21.6c0.1-0.3,0.2-0.6,0.4-0.9c0.4-0.7,1.1-1.1,1.9-1.1c9.2,0,18.3,0,27.5,0c1.1,0,2,0.8,2.2,1.9c0,0,0,0.1,0,0.1
		c0,0.2,0,0.4,0,0.6c0,0,0,0.1,0,0.1c-0.2,0.9-0.7,1.5-1.6,1.8c-0.1,0-0.2,0.1-0.3,0.1c-9.4,0-18.7,0-28.1,0c0,0-0.1,0-0.1,0
		C1.2,24,0.7,23.6,0.3,23c-0.1-0.3-0.2-0.6-0.3-0.8C0,22,0,21.8,0,21.6z"/>
</g>
</svg>
