<?xml version="1.0" encoding="utf-8"?>
<!-- Generator: Adobe Illustrator 25.2.1, SVG Export Plug-In . SVG Version: 6.00 Build 0)  -->
<svg version="1.1" id="ArrowBack" xmlns="http://www.w3.org/2000/svg" xmlns:xlink="http://www.w3.org/1999/xlink" x="0px" y="0px"
	 viewBox="0 0 32 28.7" style="enable-background:new 0 0 32 28.7;" xml:space="preserve">
<path id="Icon_ionic-md-arrow-round-back" d="M28,11.7H10.3l6.8-6.5c1-1,1-2.7,0-3.7c-0.9-1-2.5-1-3.5-0.1c0,0-0.1,0.1-0.1,0.1
	l-11.4,11c-0.5,0.5-0.8,1.2-0.7,1.8v0c0,0.7,0.3,1.4,0.7,1.8l11.4,11c0.9,1,2.5,1,3.5,0.1c0,0,0.1-0.1,0.1-0.1c1-1,1-2.7,0-3.7
	L10.3,17H28c1.4,0,2.6-1.2,2.5-2.6c0,0,0,0,0,0C30.5,13,29.4,11.8,28,11.7C28,11.7,28,11.7,28,11.7z"/>
</svg>
