<?xml version="1.0" encoding="utf-8"?>
<!-- Generator: Adobe Illustrator 24.1.0, SVG Export Plug-In . SVG Version: 6.00 Build 0)  -->
<svg version="1.1" id="Sparks" xmlns="http://www.w3.org/2000/svg" xmlns:xlink="http://www.w3.org/1999/xlink" x="0px" y="0px"
	 viewBox="0 0 32 32" style="enable-background:new 0 0 32 32;" xml:space="preserve">
<path d="M11.5,32c-0.6-1.5-1.2-3.1-1.8-4.7C8.9,25,7.2,23.6,5,22.8c-1.4-0.5-2.8-1.1-4.3-1.6c1.8-0.7,3.5-1.4,5.2-2.1
	c1.7-0.7,2.9-1.8,3.5-3.5c0.7-1.8,1.4-3.5,2.1-5.2c0.8,1.9,1.6,3.8,2.4,5.7c0.5,1.2,1.4,2.1,2.7,2.7c1.9,0.8,3.8,1.6,5.8,2.4
	c-0.4,0.2-0.9,0.3-1.3,0.5c-1.2,0.5-2.4,1-3.6,1.4c-2.1,0.8-3.4,2.3-4.1,4.3C12.7,28.9,12.1,30.5,11.5,32z"/>
<path d="M31.4,13.1c-1.3,0.4-2.5,0.8-3.8,1.2c-0.9,0.3-1.5,0.8-1.8,1.7c-0.4,1.2-0.8,2.3-1.1,3.4c-0.4-1.2-0.8-2.4-1.2-3.5
	c-0.3-0.8-0.8-1.3-1.6-1.6c-1.1-0.3-2.2-0.6-3.3-1c-0.2-0.1-0.4-0.2-0.7-0.2c1.3-0.4,2.5-0.7,3.7-1.1c1-0.3,1.6-0.8,1.9-1.8
	c0.4-1.3,0.8-2.6,1.1-3.8c0.4,1.3,0.8,2.6,1.2,4c0.2,0.8,0.7,1.3,1.5,1.5C28.7,12.3,30,12.7,31.4,13.1z"/>
<path d="M13.3,4.6C16,4.3,17.5,2.9,17.6,0c0.1,0,0.2,0.1,0.2,0.1c0.1,0.4,0.2,0.7,0.3,1.1c0.1,0.4,0.2,0.7,0.3,1.1
	c0.2,0.9,0.8,1.4,1.7,1.7c0.7,0.2,1.4,0.4,2.1,0.7c-2.7,0.2-4.2,1.6-4.5,4.3c-0.1-0.3-0.2-0.6-0.3-0.9c-0.1-0.3-0.2-0.6-0.3-1
	c-0.2-1-0.8-1.7-1.9-1.9C14.6,5,14,4.8,13.3,4.6z"/>
<path d="M4.9,3.6c0.3,1.4,0.9,2.5,2.6,2.6C5.9,6.6,5,7.5,4.9,9.1C4.6,7.6,3.9,6.5,2.2,6.4C3.9,6.1,4.6,5.2,4.9,3.6z"/>
</svg>
