<?xml version="1.0" encoding="utf-8"?>
<!-- Generator: Adobe Illustrator 25.2.1, SVG Export Plug-In . SVG Version: 6.00 Build 0)  -->
<svg version="1.1" xmlns="http://www.w3.org/2000/svg" xmlns:xlink="http://www.w3.org/1999/xlink" x="0px" y="0px"
	 viewBox="0 0 24.2 26.9" style="enable-background:new 0 0 24.2 26.9;" xml:space="preserve">
<style type="text/css">
	.st0{display:none;}
	.st1{display:none;fill:none;}
	.st2{display:inline;}
	.st3{display:none;fill:none;stroke:#000000;stroke-width:0.25;stroke-miterlimit:10;}
</style>
<g id="Sparks">
	<path class="st0" d="M93.5-12.6c-0.7-1.7-1.4-3.4-2-5.2c-0.9-2.6-2.7-4.1-5.2-5c-1.6-0.6-3.1-1.2-4.8-1.8c2-0.8,3.9-1.5,5.8-2.3
		c1.9-0.7,3.2-2,3.9-3.9c0.8-1.9,1.6-3.9,2.3-5.7c0.9,2.1,1.7,4.2,2.6,6.3c0.6,1.4,1.6,2.4,3,2.9c2.1,0.9,4.2,1.8,6.4,2.7
		c-0.5,0.2-1,0.4-1.5,0.6c-1.3,0.5-2.6,1.1-4,1.5c-2.3,0.8-3.7,2.5-4.5,4.8C94.9-16,94.2-14.3,93.5-12.6z"/>
	<path class="st0" d="M105.5-28.5c-0.4-1-0.8-2-1.2-3c-0.5-1.5-1.6-2.4-3.1-2.9c-0.9-0.3-1.8-0.7-2.8-1.1c1.2-0.5,2.3-0.9,3.4-1.3
		c1.1-0.4,1.9-1.2,2.3-2.3s0.9-2.3,1.3-3.4c0.5,1.2,1,2.5,1.5,3.7c0.3,0.8,0.9,1.4,1.7,1.7c1.2,0.5,2.5,1,3.7,1.6
		c-0.3,0.1-0.6,0.2-0.9,0.3c-0.8,0.3-1.5,0.6-2.3,0.9c-1.4,0.5-2.2,1.5-2.7,2.8C106.3-30.5,105.9-29.5,105.5-28.5z"/>
	<path class="st0" d="M88.7-35.5c-0.2-0.6-0.5-1.2-0.7-1.8c-0.3-0.9-1-1.5-1.9-1.8c-0.6-0.2-1.1-0.4-1.7-0.6
		c0.7-0.3,1.4-0.5,2.1-0.8s1.1-0.7,1.4-1.4s0.6-1.4,0.8-2c0.3,0.7,0.6,1.5,0.9,2.3c0.2,0.5,0.6,0.8,1,1c0.7,0.3,1.5,0.6,2.3,1
		c-0.2,0.1-0.3,0.1-0.5,0.2c-0.5,0.2-0.9,0.4-1.4,0.5c-0.8,0.3-1.3,0.9-1.6,1.7C89.2-36.7,89-36.1,88.7-35.5z"/>
	<path class="st0" d="M4.4,29c0.9-2.4,1.8-4.8,2.8-7.2c0.7-1.9,1.5-3.8,2.2-5.7c0.2-0.6,0.1-0.8-0.5-0.8c-1.9,0-3.8,0-5.8,0
		c-0.3,0-0.6,0-0.9,0c0-0.1-0.1-0.1-0.1-0.2c5.1-6,10.3-12,15.4-18c0.1,0,0.1,0.1,0.2,0.1c-2.1,4.2-4.2,8.5-6.3,12.9
		c2.2,0,4.3,0,6.3,0c0,0.1,0.1,0.2,0.1,0.3C13.4,16.6,9,22.9,4.6,29.1C4.5,29.1,4.5,29,4.4,29z"/>
	<path class="st0" d="M-0.3,6c-0.1,0-0.3,0-0.4-0.1l-3.8-2.3c-0.2-0.1-0.3-0.4-0.2-0.7C-4.6,2.7-4.3,2.6-4,2.8l3.8,2.3
		C0,5.2,0.1,5.5,0,5.8C-0.1,5.9-0.2,5.9-0.3,6z"/>
	<circle class="st0" cx="6.6" cy="7.9" r="2.2"/>
	<line class="st1" x1="6.6" y1="7.9" x2="-1.3" y2="0"/>
	<line class="st1" x1="6.6" y1="7.9" x2="-1.8" y2="7.9"/>
	<line class="st1" x1="6.6" y1="7.9" x2="6.6" y2="-0.5"/>
	<path class="st0" d="M-0.3,7.8C-0.4,7.9-0.5,8-0.6,8l-4.3,1.1C-5.2,9.2-5.4,9-5.5,8.7c-0.1-0.3,0.1-0.5,0.4-0.6L-0.8,7
		c0.3-0.1,0.5,0.1,0.6,0.4C-0.2,7.6-0.2,7.7-0.3,7.8z"/>
	<path class="st0" d="M1,4.7C0.9,4.6,0.8,4.5,0.8,4.4l-1.1-4.3c-0.1-0.3,0.1-0.5,0.4-0.6s0.5,0.1,0.6,0.4l1,4.2
		c0.1,0.3-0.1,0.6-0.3,0.6C1.2,4.8,1.1,4.7,1,4.7z"/>
	<g class="st0">
		<path class="st2" d="M-0.6,6.4c-0.1,0-0.3,0-0.4-0.1l-4.2-2.6c-0.3-0.2-0.3-0.5-0.2-0.8s0.5-0.3,0.8-0.1l4.2,2.6
			c0.3,0.1,0.3,0.5,0.2,0.7C-0.3,6.2-0.4,6.3-0.6,6.4z"/>
		<path class="st2" d="M-0.6,8.4c-0.1,0.1-0.2,0.2-0.3,0.2l-4.8,1.2C-6,9.9-6.3,9.7-6.4,9.4C-6.5,9.1-6.3,8.8-6,8.7l4.8-1.2
			c0.3-0.1,0.6,0.1,0.7,0.4C-0.5,8.1-0.5,8.3-0.6,8.4z"/>
		<path class="st2" d="M0.9,4.9C0.8,4.8,0.7,4.7,0.7,4.6l-1.2-4.8c-0.1-0.3,0.1-0.6,0.4-0.7c0.3,0,0.6,0.2,0.6,0.5l1.2,4.8
			C1.8,4.7,1.6,5,1.3,5.1C1.1,5,1,5,0.9,4.9z"/>
	</g>
	<line class="st3" x1="-4.8" y1="-1.7" x2="24.7" y2="27.9"/>
	<g class="st0">
		<path class="st2" d="M17.1,16.2c0.1,0,0.3,0,0.4,0.1l4.2,2.6c0.3,0.2,0.3,0.5,0.2,0.8c-0.2,0.3-0.5,0.3-0.8,0.2l-4.2-2.6
			c-0.3-0.2-0.3-0.5-0.2-0.8C16.9,16.4,17,16.3,17.1,16.2z"/>
		<path class="st2" d="M17.2,14.2c0.1-0.1,0.2-0.2,0.3-0.2l4.8-1.2c0.3-0.1,0.6,0.1,0.7,0.4c0.1,0.3-0.1,0.6-0.4,0.7l-4.8,1.2
			c-0.3,0.1-0.6-0.1-0.7-0.4C17.1,14.5,17.1,14.3,17.2,14.2z"/>
		<path class="st2" d="M15.7,17.7c0.1,0.1,0.2,0.2,0.2,0.3l1.2,4.8c0.1,0.3-0.1,0.6-0.4,0.7s-0.6-0.1-0.7-0.4l-1.2-4.8
			c-0.1-0.3,0.1-0.6,0.4-0.7C15.4,17.6,15.6,17.6,15.7,17.7z"/>
	</g>
	<path d="M12.1,22.1c-1,0-2,0-2.9,0c-0.3,0-0.3-0.1-0.4-0.3c-0.2-1.1-0.6-2-1.1-2.9C7.1,17.9,6.6,17,6,16.2c-0.6-0.8-0.9-1.6-1-2.5
		c-0.5-4,2.2-7.5,6.1-8.1c3.2-0.5,6.5,1.4,7.6,4.4c0.7,1.7,0.7,3.3,0.1,5c-0.1,0.3-0.3,0.6-0.5,0.9c-1.1,1.5-2.1,3.1-2.7,4.9
		c-0.1,0.3-0.2,0.6-0.2,1c0,0.2-0.1,0.3-0.3,0.3C14.1,22.1,13.1,22.1,12.1,22.1C12.1,22.1,12.1,22.1,12.1,22.1z M7.7,15.9
		c-0.1-4,1.2-7,5-8.7c-0.1,0-0.2-0.1-0.3-0.1c-1.4,0-2.6,0.4-3.7,1.2C6.5,9.9,5.6,13.6,7.7,15.9z"/>
	<path d="M14.3,25.5c-0.1,0.9-0.1,0.9-1,0.9c-0.9,0-1.8,0-2.7,0c-0.6,0-0.7,0-0.7-0.7c0-0.1,0-0.1,0-0.2c-0.1,0-0.2,0-0.3,0
		c-0.5,0-0.8-0.3-0.8-0.8c0-0.2,0-0.3,0-0.5c0-0.5,0.3-0.7,0.8-0.8c1.7,0,3.4,0,5,0c0.4,0,0.7,0.3,0.7,0.7
		C15.4,25.1,15.2,25.4,14.3,25.5z"/>
	<path d="M11.8,4.1C11.7,4,11.7,4,11.7,3.8l0-3c0-0.3,0.1-0.4,0.4-0.4c0.3,0,0.4,0.1,0.4,0.4l0,3c0,0.3-0.1,0.4-0.4,0.4
		C11.9,4.3,11.9,4.2,11.8,4.1z"/>
	<path d="M5,7.3c-0.1,0-0.2,0-0.3-0.1L2.6,5.2C2.4,5,2.4,4.8,2.6,4.6c0.2-0.2,0.4-0.2,0.6,0l2.1,2.1c0.2,0.2,0.2,0.4,0,0.6
		C5.2,7.3,5.1,7.3,5,7.3z"/>
	<path d="M21.5,4.9c0,0.1,0,0.2-0.1,0.3l-2.1,2.1c-0.2,0.2-0.4,0.2-0.6,0s-0.2-0.4,0-0.6l2.1-2.1c0.2-0.2,0.4-0.2,0.6,0
		C21.5,4.7,21.5,4.8,21.5,4.9z"/>
	<path d="M3.9,13c-0.1,0.1-0.1,0.1-0.3,0.1l-3,0c-0.3,0-0.4-0.1-0.4-0.4c0-0.3,0.1-0.4,0.4-0.4l3,0c0.3,0,0.4,0.1,0.4,0.4
		C4,12.8,4,12.9,3.9,13z"/>
	<path d="M23.8,13c-0.1,0.1-0.1,0.1-0.3,0.1l-3,0c-0.3,0-0.4-0.1-0.4-0.4s0.1-0.4,0.4-0.4l3,0c0.3,0,0.4,0.1,0.4,0.4
		C24,12.8,23.9,12.9,23.8,13z"/>
</g>
<g id="Layer_2" class="st0">
	<path id="Icon_weather-lightning" class="st2" d="M0,29.1h0.7l11.8-17.5c0.2-0.3,0.1-0.5-0.3-0.5H7.4l5.1-9.4
		c0.2-0.3,0-0.5-0.3-0.5H5.6c-0.2,0-0.4,0.1-0.5,0.3L0.3,14.3c0,0.3,0.1,0.5,0.3,0.5h4.7L0,29.1z M14.6,18.2h0.5l9-13.2
		c0.1-0.1,0.1-0.2,0.1-0.3c0-0.1-0.1-0.1-0.3-0.1h-3.6l3.7-7c0.2-0.3,0.1-0.5-0.3-0.5H19c-0.2,0-0.4,0.1-0.5,0.3l-3.6,9.4
		c-0.1,0.1-0.1,0.3,0,0.4c0.1,0.1,0.2,0.1,0.3,0.1h3.5L14.6,18.2z"/>
</g>
</svg>
