<?xml version="1.0" encoding="utf-8"?>
<!-- Generator: Adobe Illustrator 24.1.0, SVG Export Plug-In . SVG Version: 6.00 Build 0)  -->
<svg version="1.1" id="Sparks" xmlns="http://www.w3.org/2000/svg" xmlns:xlink="http://www.w3.org/1999/xlink" x="0px" y="0px"
	 viewBox="0 0 32 32" style="enable-background:new 0 0 32 32;" xml:space="preserve">
<path d="M12.6,32c-0.7-1.7-1.4-3.4-2-5.2c-0.9-2.6-2.7-4.1-5.2-5c-1.6-0.6-3.1-1.2-4.8-1.8c2-0.8,3.9-1.5,5.8-2.3
	c1.9-0.7,3.2-2,3.9-3.9c0.8-1.9,1.6-3.9,2.3-5.7c0.9,2.1,1.7,4.2,2.6,6.3c0.6,1.4,1.6,2.4,3,2.9c2.1,0.9,4.2,1.8,6.4,2.7
	c-0.5,0.2-1,0.4-1.5,0.6c-1.3,0.5-2.6,1.1-4,1.5c-2.3,0.8-3.7,2.5-4.5,4.8C13.9,28.6,13.3,30.3,12.6,32z"/>
<path d="M24.6,16.1c-0.4-1-0.8-2-1.2-3c-0.5-1.5-1.6-2.4-3.1-2.9c-0.9-0.3-1.8-0.7-2.8-1.1c1.2-0.5,2.3-0.9,3.4-1.3
	c1.1-0.4,1.9-1.2,2.3-2.3c0.4-1.1,0.9-2.3,1.3-3.4c0.5,1.2,1,2.5,1.5,3.7c0.3,0.8,0.9,1.4,1.7,1.7c1.2,0.5,2.5,1,3.7,1.6
	c-0.3,0.1-0.6,0.2-0.9,0.3c-0.8,0.3-1.5,0.6-2.3,0.9c-1.4,0.5-2.2,1.5-2.7,2.8C25.4,14.1,25,15.1,24.6,16.1z"/>
<path d="M7.8,9.1C7.6,8.5,7.3,7.9,7.1,7.2c-0.3-0.9-1-1.5-1.9-1.8C4.7,5.2,4.1,5,3.5,4.8C4.3,4.5,4.9,4.2,5.6,4
	C6.3,3.7,6.7,3.3,7,2.6c0.3-0.7,0.6-1.4,0.8-2c0.3,0.7,0.6,1.5,0.9,2.3c0.2,0.5,0.6,0.8,1,1c0.7,0.3,1.5,0.6,2.3,1
	c-0.2,0.1-0.3,0.1-0.5,0.2c-0.5,0.2-0.9,0.4-1.4,0.5C9.3,5.9,8.8,6.5,8.5,7.2C8.3,7.9,8,8.5,7.8,9.1z"/>
</svg>
