<?xml version="1.0" encoding="utf-8"?>
<!-- Generator: Adobe Illustrator 24.1.0, SVG Export Plug-In . SVG Version: 6.00 Build 0)  -->
<svg version="1.1" id="Sparks" xmlns="http://www.w3.org/2000/svg" xmlns:xlink="http://www.w3.org/1999/xlink" x="0px" y="0px"
	 viewBox="0 0 24.2 32" style="enable-background:new 0 0 24.2 32;" xml:space="preserve">
<style type="text/css">
	.st0{display:none;}
	.st1{display:none;fill:none;}
	.st2{display:inline;}
	.st3{display:none;fill:none;stroke:#000000;stroke-width:0.25;stroke-miterlimit:10;}
</style>
<path class="st0" d="M93.5-9.7c-0.7-1.7-1.4-3.4-2-5.2c-0.9-2.6-2.7-4.1-5.2-5c-1.6-0.6-3.1-1.2-4.8-1.8c2-0.8,3.9-1.5,5.8-2.3
	c1.9-0.7,3.2-2,3.9-3.9c0.8-1.9,1.6-3.9,2.3-5.7c0.9,2.1,1.7,4.2,2.6,6.3c0.6,1.4,1.6,2.4,3,2.9c2.1,0.9,4.2,1.8,6.4,2.7
	c-0.5,0.2-1,0.4-1.5,0.6c-1.3,0.5-2.6,1.1-4,1.5c-2.3,0.8-3.7,2.5-4.5,4.8C94.9-13.1,94.2-11.4,93.5-9.7z"/>
<path class="st0" d="M105.5-25.6c-0.4-1-0.8-2-1.2-3c-0.5-1.5-1.6-2.4-3.1-2.9c-0.9-0.3-1.8-0.7-2.8-1.1c1.2-0.5,2.3-0.9,3.4-1.3
	c1.1-0.4,1.9-1.2,2.3-2.3s0.9-2.3,1.3-3.4c0.5,1.2,1,2.5,1.5,3.7c0.3,0.8,0.9,1.4,1.7,1.7c1.2,0.5,2.5,1,3.7,1.6
	c-0.3,0.1-0.6,0.2-0.9,0.3c-0.8,0.3-1.5,0.6-2.3,0.9c-1.4,0.5-2.2,1.5-2.7,2.8C106.3-27.6,105.9-26.6,105.5-25.6z"/>
<path class="st0" d="M88.7-32.6c-0.2-0.6-0.5-1.2-0.7-1.8c-0.3-0.9-1-1.5-1.9-1.8c-0.6-0.2-1.1-0.4-1.7-0.6c0.7-0.3,1.4-0.5,2.1-0.8
	s1.1-0.7,1.4-1.4s0.6-1.4,0.8-2c0.3,0.7,0.6,1.5,0.9,2.3c0.2,0.5,0.6,0.8,1,1c0.7,0.3,1.5,0.6,2.3,1c-0.2,0.1-0.3,0.1-0.5,0.2
	c-0.5,0.2-0.9,0.4-1.4,0.5c-0.8,0.3-1.3,0.9-1.6,1.7C89.2-33.8,89-33.2,88.7-32.6z"/>
<path class="st0" d="M4.4,31.9c0.9-2.4,1.8-4.8,2.8-7.2c0.7-1.9,1.5-3.8,2.2-5.7c0.2-0.6,0.1-0.8-0.5-0.8c-1.9,0-3.8,0-5.8,0
	c-0.3,0-0.6,0-0.9,0c0-0.1-0.1-0.1-0.1-0.2C7.2,12,12.4,6,17.5,0c0.1,0,0.1,0.1,0.2,0.1c-2.1,4.2-4.2,8.5-6.3,12.9
	c2.2,0,4.3,0,6.3,0c0,0.1,0.1,0.2,0.1,0.3C13.4,19.5,9,25.8,4.6,32C4.5,32,4.5,31.9,4.4,31.9z"/>
<path class="st0" d="M-0.3,8.9c-0.1,0-0.3,0-0.4-0.1l-3.8-2.3c-0.2-0.1-0.3-0.4-0.2-0.7C-4.6,5.6-4.3,5.5-4,5.7L-0.2,8
	C0,8.1,0.1,8.4,0,8.7C-0.1,8.8-0.2,8.8-0.3,8.9z"/>
<circle class="st0" cx="6.6" cy="10.8" r="2.2"/>
<line class="st1" x1="6.6" y1="10.8" x2="-1.3" y2="2.9"/>
<line class="st1" x1="6.6" y1="10.8" x2="-1.8" y2="10.8"/>
<line class="st1" x1="6.6" y1="10.8" x2="6.6" y2="2.4"/>
<path class="st0" d="M-0.3,10.7c-0.1,0.1-0.2,0.2-0.3,0.2L-4.9,12c-0.3,0.1-0.5-0.1-0.6-0.4c-0.1-0.3,0.1-0.5,0.4-0.6l4.3-1.1
	c0.3-0.1,0.5,0.1,0.6,0.4C-0.2,10.5-0.2,10.6-0.3,10.7z"/>
<path class="st0" d="M1,7.6C0.9,7.5,0.8,7.4,0.8,7.3L-0.3,3c-0.1-0.3,0.1-0.5,0.4-0.6s0.5,0.1,0.6,0.4l1,4.2
	c0.1,0.3-0.1,0.6-0.3,0.6C1.2,7.7,1.1,7.6,1,7.6z"/>
<g class="st0">
	<path class="st2" d="M-0.6,9.3c-0.1,0-0.3,0-0.4-0.1l-4.2-2.6c-0.3-0.2-0.3-0.5-0.2-0.8s0.5-0.3,0.8-0.1l4.2,2.6
		C-0.1,8.4-0.1,8.8-0.2,9C-0.3,9.1-0.4,9.2-0.6,9.3z"/>
	<path class="st2" d="M-0.6,11.3c-0.1,0.1-0.2,0.2-0.3,0.2l-4.8,1.2c-0.3,0.1-0.6-0.1-0.7-0.4C-6.5,12-6.3,11.7-6,11.6l4.8-1.2
		c0.3-0.1,0.6,0.1,0.7,0.4C-0.5,11-0.5,11.2-0.6,11.3z"/>
	<path class="st2" d="M0.9,7.8C0.8,7.7,0.7,7.6,0.7,7.5l-1.2-4.8C-0.6,2.4-0.4,2.1-0.1,2c0.3,0,0.6,0.2,0.6,0.5l1.2,4.8
		C1.8,7.6,1.6,7.9,1.3,8C1.1,7.9,1,7.9,0.9,7.8z"/>
</g>
<line class="st3" x1="-4.8" y1="1.2" x2="24.7" y2="30.8"/>
<g class="st0">
	<path class="st2" d="M17.1,19.1c0.1,0,0.3,0,0.4,0.1l4.2,2.6c0.3,0.2,0.3,0.5,0.2,0.8c-0.2,0.3-0.5,0.3-0.8,0.2l-4.2-2.6
		c-0.3-0.2-0.3-0.5-0.2-0.8C16.9,19.3,17,19.2,17.1,19.1z"/>
	<path class="st2" d="M17.2,17.1c0.1-0.1,0.2-0.2,0.3-0.2l4.8-1.2c0.3-0.1,0.6,0.1,0.7,0.4c0.1,0.3-0.1,0.6-0.4,0.7L17.8,18
		c-0.3,0.1-0.6-0.1-0.7-0.4C17.1,17.4,17.1,17.2,17.2,17.1z"/>
	<path class="st2" d="M15.7,20.6c0.1,0.1,0.2,0.2,0.2,0.3l1.2,4.8c0.1,0.3-0.1,0.6-0.4,0.7S16.1,26.3,16,26l-1.2-4.8
		c-0.1-0.3,0.1-0.6,0.4-0.7C15.4,20.5,15.6,20.5,15.7,20.6z"/>
</g>
<path id="Icon_weather-lightning" d="M0,32h0.7l11.8-17.5c0.2-0.3,0.1-0.5-0.3-0.5H7.4l5.1-9.4c0.2-0.3,0-0.5-0.3-0.5H5.6
	c-0.2,0-0.4,0.1-0.5,0.3L0.3,17.2c0,0.3,0.1,0.5,0.3,0.5h4.7L0,32z M14.6,21.1h0.5l9-13.2c0.1-0.1,0.1-0.2,0.1-0.3
	c0-0.1-0.1-0.1-0.3-0.1h-3.6L24,0.5C24.2,0.2,24.1,0,23.7,0H19c-0.2,0-0.4,0.1-0.5,0.3l-3.6,9.4c-0.1,0.1-0.1,0.3,0,0.4
	c0.1,0.1,0.2,0.1,0.3,0.1h3.5L14.6,21.1z"/>
</svg>
