<?xml version="1.0" encoding="utf-8"?>
<!-- Generator: Adobe Illustrator 25.2.1, SVG Export Plug-In . SVG Version: 6.00 Build 0)  -->
<svg version="1.1" xmlns="http://www.w3.org/2000/svg" xmlns:xlink="http://www.w3.org/1999/xlink" x="0px" y="0px"
	 viewBox="0 0 14.2 17.9" style="enable-background:new 0 0 14.2 17.9;" xml:space="preserve">
<style type="text/css">
	.st0{display:none;}
	.st1{display:none;fill:none;}
	.st2{display:inline;}
	.st3{display:none;fill:none;stroke:#000000;stroke-width:0.25;stroke-miterlimit:10;}
</style>
<g id="Sparks">
	<path class="st0" d="M88.5-16.7c-0.7-1.7-1.4-3.4-2-5.2c-0.9-2.6-2.7-4.1-5.2-5c-1.6-0.6-3.1-1.2-4.8-1.8c2-0.8,3.9-1.5,5.8-2.3
		c1.9-0.7,3.2-2,3.9-3.9c0.8-1.9,1.6-3.9,2.3-5.7c0.9,2.1,1.7,4.2,2.6,6.3c0.6,1.4,1.6,2.4,3,2.9c2.1,0.9,4.2,1.8,6.4,2.7
		c-0.5,0.2-1,0.4-1.5,0.6c-1.3,0.5-2.6,1.1-4,1.5c-2.3,0.8-3.7,2.5-4.5,4.8C89.9-20.1,89.2-18.4,88.5-16.7z"/>
	<path class="st0" d="M100.5-32.6c-0.4-1-0.8-2-1.2-3c-0.5-1.5-1.6-2.4-3.1-2.9c-0.9-0.3-1.8-0.7-2.8-1.1c1.2-0.5,2.3-0.9,3.4-1.3
		c1.1-0.4,1.9-1.2,2.3-2.3s0.9-2.3,1.3-3.4c0.5,1.2,1,2.5,1.5,3.7c0.3,0.8,0.9,1.4,1.7,1.7c1.2,0.5,2.5,1,3.7,1.6
		c-0.3,0.1-0.6,0.2-0.9,0.3c-0.8,0.3-1.5,0.6-2.3,0.9c-1.4,0.5-2.2,1.5-2.7,2.8C101.3-34.6,100.9-33.6,100.5-32.6z"/>
	<path class="st0" d="M83.7-39.6c-0.2-0.6-0.5-1.2-0.7-1.8c-0.3-0.9-1-1.5-1.9-1.8c-0.6-0.2-1.1-0.4-1.7-0.6
		c0.7-0.3,1.4-0.5,2.1-0.8s1.1-0.7,1.4-1.4s0.6-1.4,0.8-2c0.3,0.7,0.6,1.5,0.9,2.3c0.2,0.5,0.6,0.8,1,1c0.7,0.3,1.5,0.6,2.3,1
		c-0.2,0.1-0.3,0.1-0.5,0.2c-0.5,0.2-0.9,0.4-1.4,0.5c-0.8,0.3-1.3,0.9-1.6,1.7C84.2-40.8,84-40.2,83.7-39.6z"/>
	<path class="st0" d="M-0.6,24.9c0.9-2.4,1.8-4.8,2.8-7.2c0.7-1.9,1.5-3.8,2.2-5.7c0.2-0.6,0.1-0.8-0.5-0.8c-1.9,0-3.8,0-5.8,0
		c-0.3,0-0.6,0-0.9,0c0-0.1-0.1-0.1-0.1-0.2C2.2,5,7.4-1,12.5-7c0.1,0,0.1,0.1,0.2,0.1C10.6-2.7,8.5,1.6,6.4,6c2.2,0,4.3,0,6.3,0
		c0,0.1,0.1,0.2,0.1,0.3C8.4,12.5,4,18.8-0.4,25C-0.5,25-0.5,24.9-0.6,24.9z"/>
	<path class="st0" d="M-5.3,1.9c-0.1,0-0.3,0-0.4-0.1l-3.8-2.3c-0.2-0.1-0.3-0.4-0.2-0.7C-9.6-1.4-9.3-1.5-9-1.3L-5.2,1
		C-5,1.1-4.9,1.4-5,1.7C-5.1,1.8-5.2,1.8-5.3,1.9z"/>
	<circle class="st0" cx="1.6" cy="3.8" r="2.2"/>
	<line class="st1" x1="1.6" y1="3.8" x2="-6.3" y2="-4.1"/>
	<line class="st1" x1="1.6" y1="3.8" x2="-6.8" y2="3.8"/>
	<line class="st1" x1="1.6" y1="3.8" x2="1.6" y2="-4.6"/>
	<path class="st0" d="M-5.3,3.7c-0.1,0.1-0.2,0.2-0.3,0.2L-9.9,5c-0.3,0.1-0.5-0.1-0.6-0.4c-0.1-0.3,0.1-0.5,0.4-0.6l4.3-1.1
		C-5.5,2.8-5.3,3-5.2,3.3C-5.2,3.5-5.2,3.6-5.3,3.7z"/>
	<path class="st0" d="M-4,0.6c-0.1-0.1-0.2-0.2-0.2-0.3L-5.3-4c-0.1-0.3,0.1-0.5,0.4-0.6c0.3-0.1,0.5,0.1,0.6,0.4l1,4.2
		c0.1,0.3-0.1,0.6-0.3,0.6C-3.8,0.7-3.9,0.6-4,0.6z"/>
	<g class="st0">
		<path class="st2" d="M-5.6,2.3c-0.1,0-0.3,0-0.4-0.1l-4.2-2.6c-0.3-0.2-0.3-0.5-0.2-0.8s0.5-0.3,0.8-0.1l4.2,2.6
			C-5.1,1.4-5.1,1.8-5.2,2C-5.3,2.1-5.4,2.2-5.6,2.3z"/>
		<path class="st2" d="M-5.6,4.3c-0.1,0.1-0.2,0.2-0.3,0.2l-4.8,1.2c-0.3,0.1-0.6-0.1-0.7-0.4C-11.5,5-11.3,4.7-11,4.6l4.8-1.2
			c0.3-0.1,0.6,0.1,0.7,0.4C-5.5,4-5.5,4.2-5.6,4.3z"/>
		<path class="st2" d="M-4.1,0.8c-0.1-0.1-0.2-0.2-0.2-0.3l-1.2-4.8C-5.6-4.6-5.4-4.9-5.1-5c0.3,0,0.6,0.2,0.6,0.5l1.2,4.8
			C-3.2,0.6-3.4,0.9-3.7,1C-3.9,0.9-4,0.9-4.1,0.8z"/>
	</g>
	<line class="st3" x1="-9.8" y1="-5.8" x2="19.7" y2="23.8"/>
	<g class="st0">
		<path class="st2" d="M12.1,12.1c0.1,0,0.3,0,0.4,0.1l4.2,2.6c0.3,0.2,0.3,0.5,0.2,0.8c-0.2,0.3-0.5,0.3-0.8,0.2l-4.2-2.6
			c-0.3-0.2-0.3-0.5-0.2-0.8C11.9,12.3,12,12.2,12.1,12.1z"/>
		<path class="st2" d="M12.2,10.1c0.1-0.1,0.2-0.2,0.3-0.2l4.8-1.2c0.3-0.1,0.6,0.1,0.7,0.4c0.1,0.3-0.1,0.6-0.4,0.7L12.8,11
			c-0.3,0.1-0.6-0.1-0.7-0.4C12.1,10.4,12.1,10.2,12.2,10.1z"/>
		<path class="st2" d="M10.7,13.6c0.1,0.1,0.2,0.2,0.2,0.3l1.2,4.8c0.1,0.3-0.1,0.6-0.4,0.7S11.1,19.3,11,19l-1.2-4.8
			c-0.1-0.3,0.1-0.6,0.4-0.7C10.4,13.5,10.6,13.5,10.7,13.6z"/>
	</g>
	<path d="M7.1,14.7c-0.9,0-1.9,0-2.8,0c-0.2,0-0.3-0.1-0.4-0.3c-0.2-0.9-0.6-1.8-1.1-2.6c-0.5-0.8-1-1.6-1.6-2.3
		C0.7,8.8,0.4,8.1,0.3,7.3c-0.5-3.5,2.1-6.7,5.8-7.2c3-0.4,6.1,1.3,7.2,3.9C14,5.5,14,7,13.5,8.5C13.4,8.7,13.2,9,13,9.3
		c-1,1.4-2,2.7-2.6,4.3c-0.1,0.3-0.2,0.6-0.2,0.9c0,0.2-0.1,0.3-0.3,0.3C9,14.7,8,14.7,7.1,14.7C7.1,14.7,7.1,14.7,7.1,14.7z
		 M2.9,9.2C2.7,5.6,4,2.9,7.6,1.5c-0.1,0-0.2-0.1-0.3-0.1C6,1.4,4.8,1.7,3.8,2.5C1.8,3.9,0.9,7.2,2.9,9.2z"/>
	<path d="M9,17.1c-0.1,0.8-0.1,0.8-0.9,0.8c-0.8,0-1.5,0-2.3,0c-0.6,0-0.6,0-0.6-0.6c0-0.1,0-0.1,0-0.2c-0.1,0-0.2,0-0.2,0
		c-0.4,0-0.7-0.3-0.7-0.7c0-0.1,0-0.3,0-0.4c0-0.4,0.3-0.6,0.7-0.6c1.4,0,2.9,0,4.3,0c0.4,0,0.6,0.3,0.6,0.6C10,16.8,9.8,17,9,17.1z
		"/>
</g>
<g id="Layer_2" class="st0">
	<path id="Icon_weather-lightning" class="st2" d="M-5,25h0.7L7.5,7.5C7.7,7.2,7.6,7,7.2,7H2.4l5.1-9.4c0.2-0.3,0-0.5-0.3-0.5H0.6
		c-0.2,0-0.4,0.1-0.5,0.3l-4.8,12.8c0,0.3,0.1,0.5,0.3,0.5h4.7L-5,25z M9.6,14.1h0.5l9-13.2c0.1-0.1,0.1-0.2,0.1-0.3
		c0-0.1-0.1-0.1-0.3-0.1h-3.6l3.7-7C19.2-6.8,19.1-7,18.7-7H14c-0.2,0-0.4,0.1-0.5,0.3L9.9,2.7C9.8,2.8,9.8,3,9.9,3.1
		c0.1,0.1,0.2,0.1,0.3,0.1h3.5L9.6,14.1z"/>
</g>
</svg>
