<?xml version="1.0" encoding="utf-8"?>
<!-- Generator: Adobe Illustrator 24.3.0, SVG Export Plug-In . SVG Version: 6.00 Build 0)  -->
<svg version="1.1" id="Stealth" xmlns="http://www.w3.org/2000/svg" xmlns:xlink="http://www.w3.org/1999/xlink" x="0px" y="0px"
	 viewBox="0 0 24.7 24" style="enable-background:new 0 0 24.7 24;" xml:space="preserve">
<path d="M4.7,8C5.5,5.6,6.2,3.2,7,0.8c0.1,0,0.2,0,0.3,0.1C8.2,1.1,9,1.4,9.9,1.7c0.5,0.2,1,0.2,1.6,0.1c2.1-0.4,4.3-0.7,6.4-1
	c0.1,0,0.2,0.1,0.2,0.1c0.8,2.3,1.5,4.7,2.3,7c0,0,0,0,0,0.1C15.2,8,9.9,8,4.7,8z M13.7,18.5c0.3,0.1,0.4,0.2,0.4,0.5
	c0,0.2,0,0.3,0,0.5c0.3,2.7,2.9,4.6,5.5,4c2.7-0.6,4.2-3.2,3.5-5.9c-0.5-1.9-2.2-3.3-4-3.4c-2.1-0.1-3.8,1-4.6,2.9
	c0,0.1-0.1,0.1-0.1,0.2c-0.1,0-0.2,0-0.3-0.1c-0.9-0.2-1.8-0.3-2.7-0.1c-0.3,0.1-0.4,0-0.6-0.3c-1-2.1-3.4-3-5.5-2.3
	c-2.2,0.7-3.5,2.8-3.2,5c0.3,2.1,2.1,3.8,4.2,3.9c2.1,0.1,4.2-1.3,4.7-3.4c0.1-0.5,0.2-1.1,0.2-1.7C12,18.2,12.8,18.3,13.7,18.5z
	 M6.4,21.7c-1.7,0-3.1-1.4-3.1-3c0-1.6,1.4-3.1,3.1-3.1c1.7,0,3.1,1.3,3.1,3C9.4,20.3,8.1,21.7,6.4,21.7z M18.5,21.7
	c-1.7,0-3-1.4-3-3.1c0-1.6,1.4-3.1,3.1-3.1c1.6,0,3.1,1.4,3.1,3.1C21.5,20.3,20.1,21.8,18.5,21.7z M24.7,13.5
	C16.8,9.2,6.8,9.7,0,13.5C8.2,13.5,16.4,13.5,24.7,13.5z"/>
</svg>
