<?xml version="1.0" encoding="utf-8"?>
<!-- Generator: Adobe Illustrator 25.2.1, SVG Export Plug-In . SVG Version: 6.00 Build 0)  -->
<svg version="1.1" id="Bell" xmlns="http://www.w3.org/2000/svg" xmlns:xlink="http://www.w3.org/1999/xlink" x="0px" y="0px"
	 viewBox="0 0 26.3 34.2" style="enable-background:new 0 0 26.3 34.2;" xml:space="preserve">
<path id="Icon_material-notifications" d="M13.1,33.1c1.8,0,3.3-1.5,3.3-3.3c0,0,0,0,0,0H9.8c0,0,0,0,0,0
	C9.8,31.6,11.3,33.1,13.1,33.1L13.1,33.1z M23,23.3C23,23.3,23,23.3,23,23.3l0-8.2c0-5-2.7-9.3-7.4-10.4c0,0,0,0,0,0l0-0.9
	c0-1.5-1.2-2.8-2.7-2.7c-1.3,0.1-2.3,1.2-2.3,2.5l0,0v1.1C6,5.8,3.3,10,3.3,15.1v8.2c0,0,0,0,0,0L0,26.5c0,0,0,0,0,0v1.6
	c0,0,0,0,0,0h26.2c0,0,0,0,0,0v-1.6c0,0,0,0,0,0L23,23.3z"/>
</svg>
