<?xml version="1.0" encoding="utf-8"?>
<!-- Generator: Adobe Illustrator 24.1.0, SVG Export Plug-In . SVG Version: 6.00 Build 0)  -->
<svg version="1.1" id="Bell" xmlns="http://www.w3.org/2000/svg" xmlns:xlink="http://www.w3.org/1999/xlink" x="0px" y="0px"
	 viewBox="0 0 26.3 32" style="enable-background:new 0 0 26.3 32;" xml:space="preserve">
<path id="Icon_material-notifications" d="M13.1,32c1.8,0,3.3-1.5,3.3-3.3H9.8C9.8,30.5,11.3,32,13.1,32C13.1,32,13.1,32,13.1,32z
	 M23,22.2v-8.2c0-5-2.7-9.3-7.4-10.4V2.5c0-1.4-1.1-2.5-2.5-2.5s-2.5,1.1-2.5,2.5c0,0,0,0,0,0v1.1C6,4.7,3.3,8.9,3.3,14v8.2L0,25.4
	v1.6h26.3v-1.6L23,22.2z"/>
</svg>
