<?xml version="1.0" encoding="utf-8"?>
<!-- Generator: Adobe Illustrator 24.1.2, SVG Export Plug-In . SVG Version: 6.00 Build 0)  -->
<svg version="1.1" id="SparkPlus" xmlns="http://www.w3.org/2000/svg" xmlns:xlink="http://www.w3.org/1999/xlink" x="0px" y="0px"
	 viewBox="0 0 25.8 32" style="enable-background:new 0 0 25.8 32;" xml:space="preserve">
<style type="text/css">
	.st0{fill:#010101;}
</style>
<path class="st0" d="M0,15.6l6.9,1c-1.5,5.1-3,10.3-4.5,15.4h0.1c4.9-7.3,9.8-14.6,14.7-21.9c-2.7-0.4-5.3-0.7-8-1.1
	c1.5-3,3-6,4.5-9c-0.1,0-0.2,0-0.2,0C11,0,5.8,0,5.8,0L0,15.6z"/>
<path id="Icon_awesome-plus_3_" class="st0" d="M24.7,23.1H20v-4.7c0-0.6-0.5-1-1-1h-1c-0.6,0-1,0.5-1,1l0,0v4.7h-4.7
	c-0.6,0-1,0.5-1,1l0,0v1c0,0.6,0.5,1,1,1h4.7V31c0,0.6,0.5,1,1,1l0,0h1c0.6,0,1-0.5,1-1v-4.7h4.7c0.6,0,1-0.5,1-1v-1
	C25.8,23.6,25.3,23.1,24.7,23.1z"/>
</svg>
