<?xml version="1.0" encoding="utf-8"?>
<!-- Generator: Adobe Illustrator 24.1.3, SVG Export Plug-In . SVG Version: 6.00 Build 0)  -->
<svg version="1.1" id="Trash" xmlns="http://www.w3.org/2000/svg" xmlns:xlink="http://www.w3.org/1999/xlink" x="0px" y="0px"
	 viewBox="0 0 26.7 32" style="enable-background:new 0 0 26.7 32;" xml:space="preserve">
<g>
	<path d="M24.3,18.3c0,3.5,0,6.9,0,10.4c0,2.1-1.2,3.4-3.3,3.4c-5.1,0-10.2,0-15.2,0c-2,0-3.3-1.2-3.3-3.2c0-7.1,0-14.2,0-21.3
		c0-0.9,0.1-1,1-1c6.6,0,13.2,0,19.9,0c0.9,0,1,0.1,1,1C24.3,11,24.3,14.7,24.3,18.3z M9.1,18c0-1.4,0-2.8,0-4.2
		c0-1.4,0.1-2.8,0-4.3c0-0.4-0.4-0.9-0.8-1.2c-0.3-0.2-0.9,0-1.1,0.2C6.9,8.8,6.7,9.4,6.7,9.8c0,2.1,0,4.3,0,6.4c0,3.3,0,6.6,0,10
		c0,1,0.6,1.7,1.3,1.6c0.7-0.1,1.1-0.6,1.1-1.5C9.1,23.5,9.1,20.7,9.1,18z M14.6,18.1c0-2.7,0-5.5,0-8.2c0-1-0.5-1.6-1.2-1.6
		c-0.7,0-1.2,0.6-1.2,1.5c0,1,0,2,0,3c0,4.5,0,8.9,0,13.4c0,0.4,0.2,1,0.5,1.3c0.2,0.2,0.8,0.3,1.2,0.2c0.6-0.2,0.7-0.7,0.7-1.3
		C14.6,23.5,14.6,20.8,14.6,18.1z M20,18C20,18,20,18,20,18c0-2.8,0-5.5,0-8.3c0-0.9-0.5-1.5-1.3-1.5c-0.7,0-1.2,0.6-1.2,1.5
		c0,5.5,0,11,0,16.4c0,1,0.5,1.5,1.2,1.5c0.7,0,1.2-0.6,1.2-1.5C20,23.5,20,20.8,20,18z"/>
	<path d="M9.7,2.4c0-0.5,0-0.8,0-1.2c0-0.7,0.5-1.2,1.2-1.2c1.6,0,3.3,0,4.9,0C16.6,0,17,0.5,17,1.2c0,0.4,0,0.7,0,1.2
		c1.2,0,2.4,0,3.5,0c1.6,0,3.1,0,4.7,0c0.9,0,1.5,0.5,1.5,1.3c0,0.7-0.5,1.2-1.4,1.2c-8,0-15.9,0-23.9,0C0.5,4.9,0,4.4,0,3.7
		c0-0.8,0.5-1.2,1.4-1.2C4.2,2.4,6.9,2.4,9.7,2.4z"/>
</g>
</svg>
