<?xml version="1.0" encoding="utf-8"?>
<!-- Generator: Adobe Illustrator 25.2.1, SVG Export Plug-In . SVG Version: 6.00 Build 0)  -->
<svg version="1.1" id="Pencil" xmlns="http://www.w3.org/2000/svg" xmlns:xlink="http://www.w3.org/1999/xlink" x="0px" y="0px"
	 viewBox="0 0 31 31.1" style="enable-background:new 0 0 31 31.1;" xml:space="preserve">
<path id="Icon_awesome-pencil-alt" d="M30.2,8.6l-2.8,2.8c-0.3,0.3-0.7,0.3-1,0c0,0,0,0,0,0l-6.7-6.7c-0.3-0.3-0.3-0.7,0-1
	c0,0,0,0,0,0l2.8-2.8c1.1-1.1,3-1.1,4.1,0c0,0,0,0,0,0l3.6,3.6C31.3,5.6,31.3,7.5,30.2,8.6C30.2,8.6,30.2,8.6,30.2,8.6z M17.2,6.1
	L1.3,22L0,29.4c-0.1,0.8,0.4,1.6,1.2,1.7c0.2,0,0.3,0,0.5,0L9,29.8L25,13.8c0.3-0.3,0.3-0.7,0-1c0,0,0,0,0,0l-6.7-6.7
	C18,5.8,17.5,5.8,17.2,6.1z M7.5,20.6c-0.3-0.3-0.3-0.9,0-1.2c0,0,0,0,0,0l9.3-9.3c0.3-0.3,0.9-0.3,1.2,0c0.3,0.3,0.3,0.8,0,1.2
	l-9.3,9.4C8.4,21,7.8,21,7.5,20.6C7.5,20.6,7.5,20.6,7.5,20.6L7.5,20.6z M5.3,25.7h2.9v2.2l-3.9,0.7l-1.9-1.9l0.7-3.9h2.2V25.7z"/>
</svg>
