<?xml version="1.0" encoding="utf-8"?>
<!-- Generator: Adobe Illustrator 24.1.3, SVG Export Plug-In . SVG Version: 6.00 Build 0)  -->
<svg version="1.1" id="Pencil" xmlns="http://www.w3.org/2000/svg" xmlns:xlink="http://www.w3.org/1999/xlink" x="0px" y="0px"
	 viewBox="0 0 31 31.1" style="enable-background:new 0 0 31 31.1;" xml:space="preserve">
<g>
	<path d="M31,5.6c-0.2,0.7-0.7,1.2-1.2,1.7C29,8,28.2,8.8,27.5,9.6c-0.1,0.1-0.1,0.2-0.2,0.3c-2.1-2.1-4.2-4.2-6.3-6.3c0,0,0,0,0,0
		c0.9-0.9,1.9-1.9,2.8-2.8c1-0.9,2.6-0.9,3.6,0c1.1,1,2.1,2,3.1,3.1c0.3,0.3,0.4,0.7,0.5,1C31,5.1,31,5.3,31,5.6z"/>
	<path d="M0.5,30.9c-0.5-0.4-0.6-0.5-0.5-1.1c0.5-2.2,1-4.4,1.5-6.6c0-0.1,0-0.1,0.1-0.2c2.1,2.1,4.1,4.2,6.2,6.2
		c-0.6,0.2-1.3,0.3-2,0.5c-1.6,0.4-3.3,0.8-4.9,1.2c0,0-0.1,0-0.1,0.1C0.7,30.9,0.6,30.9,0.5,30.9z"/>
	<path d="M19.3,5.2c2.1,2.1,4.2,4.2,6.2,6.2c-5.3,5.3-10.6,10.6-15.9,15.9c-2.1-2.1-4.2-4.1-6.2-6.2C8.7,15.8,14,10.5,19.3,5.2z"/>
</g>
</svg>
