<?xml version="1.0" encoding="utf-8"?>
<!-- Generator: Adobe Illustrator 24.1.2, SVG Export Plug-In . SVG Version: 6.00 Build 0)  -->
<svg version="1.1" id="UserLock" xmlns="http://www.w3.org/2000/svg" xmlns:xlink="http://www.w3.org/1999/xlink" x="0px" y="0px"
	 viewBox="0 0 27.9 22.4" style="enable-background:new 0 0 27.9 22.4;" xml:space="preserve">
<path d="M9.8,11.2c3.1,0,5.6-2.5,5.6-5.6S12.9,0,9.8,0S4.2,2.5,4.2,5.6S6.7,11.2,9.8,11.2z M14,14c0-0.5,0.1-0.9,0.4-1.3
	c-0.2,0-0.4-0.1-0.6-0.1H13c-2,0.9-4.3,0.9-6.4,0H5.9c-3.2,0-5.9,2.6-5.9,5.9v1.8c0,1.2,0.9,2.1,2.1,2.1l0,0h12.3
	C14.1,21.9,14,21.4,14,21V14z M26.5,12.6h-1.4V9.1c0-1.9-1.6-3.5-3.5-3.5s-3.5,1.6-3.5,3.5v3.5h-1.4c-0.8,0-1.4,0.6-1.4,1.4v7
	c0,0.8,0.6,1.4,1.4,1.4h9.8c0.8,0,1.4-0.6,1.4-1.4v-7C27.9,13.2,27.3,12.6,26.5,12.6z M21.7,18.9c-0.8,0-1.4-0.6-1.4-1.4
	s0.6-1.4,1.4-1.4c0.8,0,1.4,0.6,1.4,1.4S22.4,18.9,21.7,18.9z M23.1,12.6h-2.8V9.1c0-0.8,0.6-1.4,1.4-1.4c0.8,0,1.4,0.6,1.4,1.4
	V12.6z"/>
</svg>
