<?xml version="1.0" encoding="utf-8"?>
<!-- Generator: Adobe Illustrator 25.2.1, SVG Export Plug-In . SVG Version: 6.00 Build 0)  -->
<svg version="1.1" id="UserPlus" xmlns="http://www.w3.org/2000/svg" xmlns:xlink="http://www.w3.org/1999/xlink" x="0px" y="0px"
	 viewBox="0 0 30.4 24.3" style="enable-background:new 0 0 30.4 24.3;" xml:space="preserve">
<path id="Icon_awesome-user-plus" d="M29.6,9.9h-3v-3c0-0.4-0.3-0.8-0.8-0.8h-1.5c-0.4,0-0.8,0.3-0.8,0.8v3h-3
	c-0.4,0-0.8,0.3-0.8,0.8v1.5c0,0.4,0.3,0.8,0.8,0.8h3v3c0,0.4,0.3,0.8,0.8,0.8h1.5c0.4,0,0.8-0.3,0.8-0.8v-3h3
	c0.4,0,0.8-0.3,0.8-0.8v-1.5C30.4,10.2,30,9.9,29.6,9.9z M10.6,12.1c3.4,0,6.1-2.7,6.1-6.1S14,0,10.6,0C7.3,0,4.6,2.7,4.6,6.1
	C4.6,9.4,7.3,12.1,10.6,12.1C10.6,12.1,10.6,12.1,10.6,12.1z M14.9,13.7h-0.8c-2.2,1-4.7,1-6.9,0H6.4C2.9,13.7,0,16.5,0,20
	c0,0,0,0,0,0v2c0,1.3,1,2.3,2.3,2.3H19c1.3,0,2.3-1,2.3-2.3v-2C21.3,16.5,18.4,13.7,14.9,13.7C14.9,13.7,14.9,13.7,14.9,13.7z"/>
</svg>
