<?xml version="1.0" encoding="utf-8"?>
<!-- Generator: Adobe Illustrator 25.2.3, SVG Export Plug-In . SVG Version: 6.00 Build 0)  -->
<svg version="1.1" id="Clock" xmlns="http://www.w3.org/2000/svg" xmlns:xlink="http://www.w3.org/1999/xlink" x="0px" y="0px"
	 viewBox="0 0 32 32" style="enable-background:new 0 0 32 32;" xml:space="preserve">
<g id="MJwAyd.tif">
	<g>
		<path d="M15.2,0.5c0.5,0,1.1,0,1.6,0c0.4,0,0.8,0.1,1.3,0.1c3,0.4,5.8,1.6,8.1,3.7c2.9,2.5,4.6,5.6,5.2,9.4c0.1,0.5,0.1,1,0.2,1.5
			c0,0.5,0,1.1,0,1.6c0,0.1-0.1,0.2-0.1,0.3c-0.2,2.5-0.8,4.8-2.1,6.9c-2.5,4.1-6.2,6.6-11,7.4c-0.5,0.1-1,0.1-1.5,0.2
			c-0.5,0-1.1,0-1.6,0c-0.1,0-0.2-0.1-0.3-0.1c-0.5-0.1-0.9-0.1-1.4-0.2c-2.9-0.5-5.4-1.7-7.6-3.6C3,25.2,1.3,22,0.7,18.3
			c-0.1-0.5-0.1-1-0.2-1.5c0-0.5,0-1.1,0-1.6c0-0.1,0.1-0.2,0.1-0.3c0.1-0.6,0.1-1.2,0.2-1.9c0.7-3.3,2.2-6.2,4.8-8.5
			c2.3-2.1,5-3.4,8.2-3.9C14.2,0.6,14.7,0.6,15.2,0.5z M16,3.4C9,3.4,3.4,9,3.4,16C3.4,23,9,28.6,16,28.6c7,0,12.6-5.7,12.6-12.6
			C28.6,9,23,3.4,16,3.4z"/>
		<path d="M14.6,11.8c0-1.4,0-2.7,0-4.1c0-1,0.7-1.6,1.6-1.5c0.6,0.1,1.1,0.6,1.1,1.2c0,0.2,0,0.3,0,0.5c0,2.3,0,4.6,0,6.9
			c0,0.3,0.1,0.4,0.3,0.6c1.5,0.7,3,1.5,4.5,2.2c0.8,0.4,1.1,1.3,0.6,2c-0.4,0.7-1.2,0.9-1.9,0.5c-1.7-0.8-3.3-1.7-5-2.5
			c-0.1-0.1-0.3-0.1-0.4-0.2c-0.6-0.3-0.9-0.8-0.9-1.5C14.6,14.5,14.6,13.1,14.6,11.8z"/>
	</g>
</g>
</svg>
