<?xml version="1.0" encoding="utf-8"?>
<!-- Generator: Adobe Illustrator 25.0.1, SVG Export Plug-In . SVG Version: 6.00 Build 0)  -->
<svg version="1.1" id="Checkmark" xmlns="http://www.w3.org/2000/svg" xmlns:xlink="http://www.w3.org/1999/xlink" x="0px" y="0px"
	 viewBox="0 0 32 30.8" style="enable-background:new 0 0 32 30.8;" xml:space="preserve">
<path d="M11.9,21.5c1-1.5,2-2.9,2.9-4.3c3.6-5.3,7.3-10.7,11-16c1-1.4,1.7-1.5,3.1-0.5c0.7,0.5,1.4,1,2.2,1.5c1,0.7,1.1,1.5,0.4,2.5
	C28.1,9.8,24.7,14.9,21.2,20c-2.2,3.2-4.4,6.4-6.6,9.6C13.7,31,12,31.2,10.8,30C7.4,26.6,4,23.2,0.6,19.8c-0.7-0.7-0.7-1.4-0.1-2.2
	c0.8-0.9,1.7-1.8,2.6-2.6c0.7-0.6,1.5-0.6,2.2,0.1c2,2,4,3.9,6,5.9C11.5,21.2,11.7,21.3,11.9,21.5z"/>
</svg>
