<?xml version="1.0" encoding="utf-8"?>
<!-- Generator: Adobe Illustrator 25.2.3, SVG Export Plug-In . SVG Version: 6.00 Build 0)  -->
<svg version="1.1" id="LinkIcon" xmlns="http://www.w3.org/2000/svg" xmlns:xlink="http://www.w3.org/1999/xlink" x="0px" y="0px"
	 viewBox="0 0 32 32" style="enable-background:new 0 0 32 32;" xml:space="preserve">
<g>
	<path d="M13.6,15.7c0.3,0.9,0.7,1.6,1.5,2.1c1.6,1.2,3.8,1,5.2-0.4c1.9-1.9,3.8-3.8,5.7-5.7c1.2-1.2,1.5-2.6,1-4.2
		c-0.5-1.5-1.7-2.4-3.3-2.7c-1.3-0.2-2.5,0.3-3.4,1.2c-0.6,0.6-1.2,1.2-1.8,1.8C18.3,8,18.2,8.1,18.1,8c-1.5-0.6-3.1-0.7-4.7-0.5
		c-0.1,0-0.1,0-0.2,0c0.1-0.1,0.1-0.1,0.1-0.1c1.5-1.5,2.9-3,4.4-4.4c2.3-2.1,5.1-2.7,8-1.7c3,1,4.8,3.1,5.4,6.1
		c0.5,2.8-0.3,5.2-2.2,7.3c-1.9,2-3.9,3.9-5.8,5.8c-1.4,1.3-3,2.1-5,2.2c-2.7,0.2-4.9-0.8-6.7-2.8c-0.3-0.3-0.5-0.7-0.7-1
		c-0.1-0.1-0.1-0.2,0-0.4c0.8-0.8,1.6-1.6,2.5-2.4C13.2,15.9,13.4,15.8,13.6,15.7z"/>
	<path d="M18.4,16.3c-0.3-0.9-0.7-1.6-1.4-2.1c-1.6-1.2-3.7-1.1-5.3,0.3c-2,1.9-3.9,3.9-5.8,5.9c-1.1,1.1-1.3,2.5-0.8,4
		c0.5,1.5,1.5,2.4,3,2.7c1.4,0.3,2.6-0.2,3.7-1.2c0.6-0.6,1.2-1.2,1.8-1.8c0.1-0.1,0.2-0.1,0.3-0.1c1.6,0.6,3.2,0.7,4.8,0.5
		c0,0,0.1,0,0.1,0c0,0.1-0.1,0.1-0.1,0.1c-1.5,1.5-2.9,3-4.4,4.3c-2.3,2.1-5.1,2.8-8.1,1.8c-3-1-4.8-3.1-5.4-6.2
		c-0.5-2.7,0.2-5.2,2.2-7.2c1.9-2,3.9-4,5.9-5.9c1.6-1.5,3.5-2.3,5.6-2.2c2.9,0.1,5.1,1.3,6.7,3.7c0.1,0.2,0.1,0.3-0.1,0.5
		c-0.8,0.8-1.6,1.6-2.4,2.4C18.8,16.1,18.6,16.2,18.4,16.3z"/>
</g>
</svg>
