<?xml version="1.0" encoding="utf-8"?>
<!-- Generator: Adobe Illustrator 25.2.1, SVG Export Plug-In . SVG Version: 6.00 Build 0)  -->
<svg version="1.1" id="Recommended" xmlns="http://www.w3.org/2000/svg" xmlns:xlink="http://www.w3.org/1999/xlink" x="0px"
	 y="0px" viewBox="0 0 22.5 30.9" style="enable-background:new 0 0 22.5 30.9;" xml:space="preserve">
<path d="M13.4,1.2c0.9,0.8,1.9,1.2,3,1.2c1.9-0.1,2.7,1.3,2.9,2.8c0.1,1,0.4,2,1,2.9c0.3,0.4,0.6,0.9,0.8,1.3
	c0.6,1.1,0.2,2.5-0.7,3.4c-0.8,0.7-1.1,1.6-1.1,2.7c0,1.8-1.5,3.3-3.3,3.1c-0.9-0.1-1.6,0.3-2.2,0.8c-0.6,0.4-1.2,0.8-1.9,1.1
	c-0.9,0.3-1.8,0-2.5-0.6C9,19.6,8.6,19.3,8.3,19c-0.5-0.4-1.1-0.5-1.7-0.4c-1.6,0.3-3.2-1.2-3.4-2.9c0-0.1,0-0.2,0-0.2
	c0.1-1.1-0.3-1.9-1.1-2.7c-1.2-1-1.3-2.1-0.6-3.4C1.7,9.1,1.8,8.8,2,8.5c0.8-1,1.2-2.1,1.3-3.3c0-1.8,0.8-2.9,2.7-2.9
	c1.1,0,2.1-0.3,3-1.1c0.5-0.4,1.1-0.7,1.6-1C11,0,11.4,0,11.7,0.2C12.3,0.5,12.9,0.7,13.4,1.2z M11.2,16.3c3.3,0,6.1-2.7,6.2-6
	c0-3.3-2.7-6.2-6.1-6.2s-6.2,2.7-6.2,6C5.1,13.5,7.8,16.3,11.2,16.3z M5.6,30.9c-0.4-0.7-0.9-1.4-1.3-2.1c-0.7-1.3-0.6-1.3-1.9-1
	c-0.6,0.1-1.1,0.2-1.7,0.3c-0.6,0.1-0.8-0.2-0.7-0.9c0-0.2,0.1-0.5,0.2-0.6c1-2.3,2.1-4.6,3.1-6.9c0.1-0.2,0.4-0.3,0.6-0.1
	c1,1,2.2,1.4,3.5,1.4c0.2,0,0.4,0.2,0.6,0.3c0.5,0.5,1.1,0.9,1.6,1.4c0.1,0.1,0.2,0.3,0.1,0.5c-0.6,1.2-1.2,2.6-1.8,3.9
	c-0.4,0.9-0.7,1.8-1.2,2.7c-0.2,0.4-0.5,0.8-0.8,1.2C5.9,30.9,5.7,30.9,5.6,30.9z M16.9,30.9c0.4-0.7,0.9-1.4,1.3-2.1
	c0.7-1.3,0.6-1.3,1.9-1c0.6,0.1,1.1,0.2,1.7,0.3c0.6,0.1,0.8-0.2,0.7-0.9c0-0.2-0.1-0.5-0.2-0.6c-1-2.2-2-4.4-3-6.7
	c-0.2-0.4-0.6-0.4-0.9-0.2c-1,0.9-2.1,1.2-3.4,1.2c-0.2,0-0.4,0.2-0.6,0.3c-0.5,0.4-1,0.9-1.5,1.3c-0.2,0.2-0.3,0.4-0.1,0.7
	c0.6,1.2,1.2,2.5,1.8,3.8c0.4,0.9,0.7,1.8,1.2,2.7c0.2,0.4,0.5,0.8,0.8,1.2C16.7,30.9,16.8,30.9,16.9,30.9z M9.1,6.7
	c0.2,0.6,0.4,1.1,0.5,1.7c0.1,0.5,0.5,0.8,1,1c0.6,0.2,1.1,0.3,1.7,0.5C12.2,10,12,10,11.9,10.1c-0.4,0.1-0.9,0.3-1.3,0.4
	c-0.5,0.1-0.8,0.5-0.9,0.9c-0.2,0.5-0.3,1-0.5,1.6c0,0,0,0.1-0.1,0.2c-0.2-0.6-0.4-1.2-0.5-1.7s-0.5-0.8-0.9-0.9
	C7.1,10.4,6.6,10.3,6,10c0.5-0.3,1-0.5,1.6-0.6c0.5-0.1,0.8-0.5,1-1C8.7,7.8,8.9,7.3,9.1,6.7L9.1,6.7z M13,11.6
	c0.1,0.4,0.2,0.7,0.3,1s0.3,0.5,0.6,0.6s0.6,0.2,1,0.3c-0.3,0.1-0.6,0.2-0.9,0.3c-0.4,0.1-0.7,0.4-0.8,0.8c-0.1,0.3-0.2,0.5-0.3,0.9
	c-0.1-0.4-0.2-0.7-0.3-1S12.3,14,12,13.9s-0.6-0.2-1-0.3c0.3-0.1,0.6-0.2,0.9-0.3c0.4-0.1,0.6-0.3,0.7-0.7
	C12.8,12.2,12.9,11.9,13,11.6z M12.2,7.7c0.9-0.1,1.4-0.6,1.5-1.5c0.1,0.9,0.6,1.4,1.6,1.5c-0.9,0.1-1.5,0.6-1.5,1.6
	C13.6,8.3,13.1,7.8,12.2,7.7z"/>
</svg>
