<?xml version="1.0" encoding="utf-8"?>
<!-- Generator: Adobe Illustrator 25.2.1, SVG Export Plug-In . SVG Version: 6.00 Build 0)  -->
<svg version="1.1" id="Coffee" xmlns="http://www.w3.org/2000/svg" xmlns:xlink="http://www.w3.org/1999/xlink" x="0px" y="0px"
	 viewBox="0 0 24 24.1" style="enable-background:new 0 0 24 24.1;" xml:space="preserve">
<path d="M19.2,7.3H4.5C4,7.3,3.6,7.7,3.6,8.2v8.7c0,2,1.6,3.6,3.6,3.6h7.2c2,0,3.6-1.6,3.6-3.6h1.2c2.7,0,4.8-2.2,4.8-4.8
	C24,9.5,21.9,7.3,19.2,7.3z M19.2,14.5H18V9.7h1.2c1.3,0,2.4,1.1,2.4,2.4C21.6,13.5,20.5,14.5,19.2,14.5z M21,24.1H1.8
	c-1.8,0-2.3-2.4-1.4-2.4h21.9C23.3,21.7,22.8,24.1,21,24.1L21,24.1z M14.5,0c0.4,0.2,0.6,0.7,0.7,1.1c0.2,0.9,0.1,1.7-0.4,2.4
	c-0.4,0.6-0.5,1.2-0.2,1.9c0.1,0.1,0.1,0.2,0.2,0.4c0.1,0.2,0.1,0.5-0.2,0.6c-0.2,0.1-0.5,0.1-0.6-0.1c-0.7-0.8-0.7-2.2-0.1-3.1
	c0.2-0.3,0.4-0.7,0.5-1.1c0-0.4,0-0.9-0.3-1.2c-0.1-0.2-0.2-0.3-0.1-0.5C14,0.2,14.1,0.1,14.2,0C14.3,0,14.4,0,14.5,0z M7.4,0
	c0.4,0.2,0.6,0.6,0.7,1.1c0.2,0.9,0.1,1.7-0.4,2.4C7.1,4.2,7.1,4.9,7.6,5.7C7.8,6,7.7,6.2,7.5,6.4C7.3,6.5,7,6.4,6.8,6.2
	C6.2,5.2,6.1,4,6.8,3c0.4-0.6,0.6-1.3,0.3-2C7,1,7,0.9,7,0.9C6.7,0.4,6.7,0.3,7.1,0C7.2,0,7.3,0,7.4,0z M11.1,0
	c0.4,0.3,0.6,0.7,0.7,1.1c0.2,0.8,0.1,1.6-0.4,2.4c-0.5,0.7-0.5,1.5,0,2.2c0.2,0.3,0.1,0.5-0.1,0.7c-0.2,0.1-0.5,0.1-0.7-0.2
	c-0.6-0.9-0.7-2.2,0-3.1c0.4-0.6,0.6-1.3,0.3-2c0-0.1-0.1-0.2-0.1-0.2c-0.2-0.4-0.2-0.6,0.2-0.8C10.9,0,11,0,11.1,0z"/>
</svg>
