<?xml version="1.0" encoding="utf-8"?>
<!-- Generator: Adobe Illustrator 25.2.1, SVG Export Plug-In . SVG Version: 6.00 Build 0)  -->
<svg version="1.1" xmlns="http://www.w3.org/2000/svg" xmlns:xlink="http://www.w3.org/1999/xlink" x="0px" y="0px"
	 viewBox="0 0 26.7 25.5" style="enable-background:new 0 0 26.7 25.5;" xml:space="preserve">
<style type="text/css">
	.st0{display:none;}
	.st1{display:inline;}
</style>
<g id="Files">
	<path id="Icon_material-library-books" d="M3.2,5.4H1.4C1.2,5.4,1,5.5,1,5.7v16.9c0,1.4,1.1,2.5,2.5,2.5h16.9
		c0.2,0,0.3-0.1,0.3-0.3v-1.8c0-0.2-0.1-0.3-0.3-0.3H3.8c-0.2,0-0.3-0.1-0.3-0.3V5.7C3.5,5.5,3.4,5.4,3.2,5.4z M23.2,0.4H8.4
		C7.1,0.5,6,1.6,6,2.9v14.8c0,1.4,1.1,2.5,2.5,2.5h14.8c1.4,0,2.5-1.1,2.5-2.5V2.9C25.7,1.6,24.6,0.5,23.2,0.4z M22,11.5H9.7V9.1H22
		L22,11.5z M17,16.4H9.7V14H17V16.4z M22,6.6H9.7V4.1H22L22,6.6z"/>
</g>
<g id="Layer_2" class="st0">
	<path class="st1" d="M22.6,38.8l-2-2.1v-4.5H6.1v1.3H3.9v-2c0-0.7,0.6-1.6,1.4-1.6L21.5,30c0.6,0,1.1,0.5,1.1,1.1V38.8z M26.7,50.7
		v7.7c0,1.3-1.1,2.4-2.4,2.4H2.4c-1.3,0.1-2.4-1-2.4-2.3v-7.7c0-0.5,0.2-1.1,0.4-1.5l2.7-4.4c0.1-0.2,0.4-0.1,0.4,0.1l0.1,2.8
		c0,0.1,0,0.3-0.1,0.4L3,49.1c-0.1,0.3,0.1,0.7,0.5,0.7h0.4V36c0-0.8,0.6-1.6,1.4-1.6l9.8,0.1c0.9,0,1.8,0.3,2.5,1l4.2,4.1
		c0.6,0.6,1,1.4,1,2.3V50h0.4c0.4,0,0.6-0.4,0.5-0.7l-0.4-0.8c-0.1-0.1-0.1-0.3-0.1-0.4l0.1-2.8c0-0.2,0.2-0.3,0.4-0.1l2.7,4.3
		C26.6,49.7,26.7,50.2,26.7,50.7z M6.1,49.8h14.5V42c0-0.1,0-0.3-0.1-0.5h-0.1H16c-0.5,0-0.8-0.4-0.8-0.8v-4c0,0,0,0-0.1,0h-9
		C6.1,36.7,6.1,49.8,6.1,49.8z M17.7,55.6c0-0.9-0.7-1.7-1.7-1.7h-5.3c-0.9,0-1.7,0.7-1.7,1.7c0,0.9,0.7,1.6,1.7,1.6H16
		C16.9,57.3,17.7,56.6,17.7,55.6z M12.6,39.9L12.6,39.9c0-0.7-0.4-1.1-1-1.1h-3c-0.6,0-1,0.4-1,1v0.1c0,0.6,0.4,1,1,1h3
		C12.1,40.9,12.6,40.5,12.6,39.9z M19.2,43.9L19.2,43.9c0-0.7-0.4-1.1-1-1.1H8.6c-0.6,0-1,0.4-1,1v0.1c0,0.6,0.4,1,1,1h9.6
		C18.8,44.9,19.2,44.5,19.2,43.9z M15.2,47.9L15.2,47.9c0-0.7-0.4-1.1-1-1.1H8.6c-0.6,0-1,0.4-1,1v0.1c0,0.6,0.4,1,1,1h5.5
		C14.7,48.9,15.2,48.4,15.2,47.9z M16,54.7h-5.3c-0.5,0-0.9,0.4-0.9,0.9s0.4,0.9,0.9,0.9H16c0.5,0,0.9-0.4,0.9-0.9
		S16.5,54.7,16,54.7z"/>
</g>
</svg>
