<?xml version="1.0" encoding="utf-8"?>
<!-- Generator: Adobe Illustrator 25.2.1, SVG Export Plug-In . SVG Version: 6.00 Build 0)  -->
<svg version="1.1" id="Files" xmlns="http://www.w3.org/2000/svg" xmlns:xlink="http://www.w3.org/1999/xlink" x="0px" y="0px"
	 viewBox="0 0 26.7 31" style="enable-background:new 0 0 26.7 31;" xml:space="preserve">
<path d="M22.6,8.9l-2-2.1V2.3H6.1v1.3H3.9v-2C3.9,0.9,4.5,0,5.3,0l16.2,0.1c0.6,0,1.1,0.5,1.1,1.1L22.6,8.9z M26.7,20.8v7.7
	c0,1.3-1.1,2.4-2.4,2.4H2.4C1.1,31,0,29.9,0,28.6v-7.7c0-0.5,0.2-1.1,0.4-1.5L3.1,15c0.1-0.2,0.4-0.1,0.4,0.1l0.1,2.8
	c0,0.1,0,0.3-0.1,0.4L3,19.2c-0.1,0.3,0.1,0.7,0.5,0.7h0.4V6.1c0-0.8,0.6-1.6,1.4-1.6l9.8,0.1c0.9,0,1.8,0.3,2.5,1l4.2,4.1
	c0.6,0.6,1,1.4,1,2.3l0,8.1h0.4c0.4,0,0.6-0.4,0.5-0.7l-0.4-0.8c-0.1-0.1-0.1-0.3-0.1-0.4l0.1-2.8c0-0.2,0.2-0.3,0.4-0.1l2.7,4.3
	C26.6,19.8,26.7,20.3,26.7,20.8z M6.1,19.9h14.5v-7.8c0-0.1,0-0.3-0.1-0.5c0,0-0.1,0-0.1,0H16c-0.5,0-0.8-0.4-0.8-0.8V6.8
	c0,0,0,0-0.1,0h-9V19.9z M17.7,25.7c0-0.9-0.7-1.7-1.7-1.7h-5.3c-0.9,0-1.7,0.7-1.7,1.7c0,0.9,0.7,1.6,1.7,1.6H16
	C16.9,27.4,17.7,26.7,17.7,25.7z M12.6,10V9.9c0-0.6-0.4-1-1-1h-3c-0.6,0-1,0.4-1,1V10c0,0.6,0.4,1,1,1h3C12.1,11,12.6,10.6,12.6,10
	z M19.2,14v-0.1c0-0.6-0.4-1-1-1H8.6c-0.6,0-1,0.4-1,1V14c0,0.6,0.4,1,1,1h9.6C18.8,15,19.2,14.6,19.2,14z M15.2,18v-0.1
	c0-0.6-0.4-1-1-1H8.6c-0.6,0-1,0.4-1,1V18c0,0.6,0.4,1,1,1h5.5C14.7,19,15.2,18.5,15.2,18z M16,24.8h-5.3c-0.5,0-0.9,0.4-0.9,0.9
	c0,0.5,0.4,0.9,0.9,0.9H16c0.5,0,0.9-0.4,0.9-0.9C16.9,25.2,16.5,24.8,16,24.8z"/>
</svg>
