<?xml version="1.0" encoding="utf-8"?>
<!-- Generator: Adobe Illustrator 24.1.0, SVG Export Plug-In . SVG Version: 6.00 Build 0)  -->
<svg version="1.1" id="Plus" xmlns="http://www.w3.org/2000/svg" xmlns:xlink="http://www.w3.org/1999/xlink" x="0px" y="0px"
	 viewBox="0 0 32 32" style="enable-background:new 0 0 32 32;" xml:space="preserve">
<path id="Icon_awesome-plus" d="M29.7,12.6H19.4V2.3c0-1.3-1-2.3-2.3-2.3h-2.3c-1.3,0-2.3,1-2.3,2.3c0,0,0,0,0,0v10.3H2.3
	c-1.3,0-2.3,1-2.3,2.3c0,0,0,0,0,0v2.3c0,1.3,1,2.3,2.3,2.3h10.3v10.3c0,1.3,1,2.3,2.3,2.3c0,0,0,0,0,0h2.3c1.3,0,2.3-1,2.3-2.3
	V19.4h10.3c1.3,0,2.3-1,2.3-2.3v-2.3C32,13.6,31,12.6,29.7,12.6z"/>
</svg>
