<?xml version="1.0" encoding="utf-8"?>
<!-- Generator: Adobe Illustrator 25.2.1, SVG Export Plug-In . SVG Version: 6.00 Build 0)  -->
<svg version="1.1" id="Plus" xmlns="http://www.w3.org/2000/svg" xmlns:xlink="http://www.w3.org/1999/xlink" x="0px" y="0px"
	 viewBox="0 0 32 32" style="enable-background:new 0 0 32 32;" xml:space="preserve">
<path d="M32,16c0,1.2-1,2.2-2.2,2.2H18.2v11.5c0,0.6-0.2,1.2-0.7,1.6c-0.4,0.4-1,0.7-1.6,0.7c-1.2,0-2.2-1-2.2-2.2V18.2H2.2
	C1,18.2,0,17.2,0,16s1-2.2,2.2-2.2h11.5V2.2C13.8,1,14.8,0,16,0s2.2,1,2.2,2.2v11.5h11.5c0.6,0,1.2,0.2,1.6,0.7
	C31.8,14.8,32,15.4,32,16z"/>
</svg>
